<svg width="855" height="518" fill="none" xmlns="http://www.w3.org/2000/svg"><g clip-path="url(#clip0_77_498)"><g style="mix-blend-mode:lighten" opacity=".2" filter="url(#filter0_f_77_498)"><path d="M181.342 673.091c209.501 0 379.334-169.703 379.334-379.042 0-209.339-169.833-379.042-379.334-379.042-209.5 0-379.335 169.703-379.335 379.042 0 209.339 169.834 379.042 379.335 379.042z" fill="url(#paint0_radial_77_498)" style="mix-blend-mode:lighten"/></g><g style="mix-blend-mode:lighten" opacity=".2" filter="url(#filter1_f_77_498)"><path d="M548.828 418.578c77.192-77.133 77.192-202.189 0-279.322-77.192-77.133-202.346-77.133-279.538 0-77.192 77.133-77.192 202.189 0 279.322 77.192 77.133 202.346 77.133 279.538 0z" fill="url(#paint1_radial_77_498)" style="mix-blend-mode:lighten"/></g><g style="mix-blend-mode:lighten" opacity=".2" filter="url(#filter2_f_77_498)"><path d="M726.658 828.176c209.501 0 379.332-169.703 379.332-379.042 0-209.339-169.831-379.042-379.332-379.042-209.5 0-379.334 169.703-379.334 379.042 0 209.339 169.834 379.042 379.334 379.042z" fill="url(#paint2_radial_77_498)" style="mix-blend-mode:lighten"/></g><g style="mix-blend-mode:lighten" opacity=".5" filter="url(#filter3_f_77_498)"><path d="M550.355 102.732H285.991v589.592l.158.001c-.874 20.151 11.9 40.462 38.558 55.841 51.622 29.781 135.315 29.782 186.934.002 25.811-14.89 38.716-34.406 38.714-53.922V102.732z" fill="url(#paint3_radial_77_498)" style="mix-blend-mode:lighten"/></g><path d="M418.174 659.204c-34.124 0-68.248-7.493-94.229-22.48-25.456-14.686-39.477-34.305-39.477-55.24 0-20.934 14.021-40.554 39.475-55.239 51.957-29.976 136.496-29.968 188.458.003 25.456 14.687 39.477 34.305 39.477 55.241 0 20.934-14.021 40.549-39.475 55.235-25.978 14.987-60.102 22.48-94.229 22.48zm-.004-152.44c-33.575 0-67.145 7.371-92.704 22.115-24.475 14.12-37.954 32.803-37.954 52.605.003 19.803 13.481 38.486 37.956 52.605 51.12 29.491 134.297 29.486 185.412 0 24.475-14.119 37.954-32.8 37.954-52.6 0-19.805-13.479-38.485-37.956-52.607-25.559-14.744-59.136-22.118-92.708-22.118z" fill="#53A5F8"/><path opacity=".5" d="M418.174 582.948c-34.124 0-68.248-7.493-94.229-22.481-25.456-14.685-39.477-34.305-39.477-55.239 0-20.934 14.021-40.554 39.475-55.239 51.957-29.974 136.496-29.976 188.458.002 25.456 14.688 39.477 34.305 39.477 55.242 0 20.934-14.021 40.549-39.475 55.234-25.978 14.988-60.102 22.481-94.229 22.481zm-.007-152.442c-33.572 0-67.145 7.373-92.701 22.117-24.475 14.12-37.954 32.803-37.954 52.605.003 19.803 13.481 38.486 37.956 52.605 51.12 29.488 134.297 29.488 185.412 0 24.475-14.119 37.954-32.8 37.954-52.6 0-19.805-13.479-38.485-37.956-52.607-25.559-14.747-59.136-22.12-92.711-22.12z" fill="#53A5F8"/><path opacity=".3" d="M418.179 506.691c-34.129 0-68.25-7.492-94.234-22.482-25.456-14.686-39.474-34.303-39.477-55.237 0-20.935 14.019-40.554 39.475-55.239 51.957-29.974 136.496-29.976 188.458.002 25.456 14.688 39.477 34.305 39.477 55.242 0 20.934-14.021 40.549-39.475 55.234-25.976 14.986-60.102 22.48-94.224 22.48zm-.012-152.441c-33.572 0-67.145 7.373-92.701 22.117-24.475 14.119-37.954 32.802-37.954 52.605.003 19.802 13.481 38.483 37.956 52.602 51.118 29.493 134.3 29.491 185.412.003 24.475-14.12 37.954-32.8 37.954-52.6 0-19.805-13.479-38.486-37.956-52.608-25.559-14.746-59.136-22.119-92.711-22.119z" fill="#53A5F8"/><path opacity=".1" d="M418.179 430.435c-34.129 0-68.25-7.493-94.234-22.483-25.456-14.685-39.477-34.305-39.477-55.239 0-20.934 14.021-40.552 39.475-55.237 51.957-29.976 136.496-29.976 188.458 0 25.456 14.688 39.477 34.305 39.477 55.242 0 20.934-14.018 40.551-39.475 55.237-25.976 14.985-60.102 22.48-94.224 22.48zm-.009-152.442c-33.575 0-67.148 7.373-92.704 22.117-24.475 14.12-37.951 32.801-37.954 52.603 0 19.803 13.481 38.486 37.956 52.605 51.116 29.493 134.297 29.49 185.412.002 24.475-14.119 37.954-32.802 37.954-52.602 0-19.805-13.479-38.488-37.956-52.608-25.562-14.744-59.136-22.117-92.708-22.117z" fill="#53A5F8"/><path d="M495.85 526.6a6.529 6.529 0 006.532-6.527 6.529 6.529 0 00-6.532-6.527 6.529 6.529 0 00-6.531 6.527 6.529 6.529 0 006.531 6.527z" fill="#6BD2FE"/><path d="M434.77 428.972a6.529 6.529 0 01-6.532 6.526 6.53 6.53 0 01-6.532-6.526 6.53 6.53 0 016.532-6.527 6.529 6.529 0 016.532 6.527zm-102.74-54.246a6.529 6.529 0 01-6.532 6.527 6.529 6.529 0 01-6.531-6.527 6.529 6.529 0 016.531-6.526 6.529 6.529 0 016.532 6.526zm155.505-11.913a6.53 6.53 0 01-6.532 6.527 6.53 6.53 0 01-6.532-6.527 6.53 6.53 0 016.532-6.527 6.53 6.53 0 016.532 6.527zm55.302-44.106a6.529 6.529 0 01-6.532 6.526 6.529 6.529 0 01-6.531-6.526 6.529 6.529 0 016.531-6.527 6.529 6.529 0 016.532 6.527zm-122.74-40.844c0 6.092-4.942 11.03-11.038 11.03s-11.038-4.938-11.038-11.03c0-6.091 4.942-11.029 11.038-11.029s11.038 4.938 11.038 11.029z" fill="#6E6EF6"/><path d="M877.097 466.658a92.832 92.832 0 00-9.256 1.882c-13.545 3.458-27.223 9.911-40.108 18.457l15.515 15.96c12.885-8.546 26.563-15 40.108-18.457a92.775 92.775 0 019.256-1.882l-15.515-15.96z" fill="#9CF5FE"/><path d="M406.763 129.381c2.509-.991 14.882-8.306 11.226-21.188-3.655-12.883-18.718-7.589-23.045-5.519-4.327 2.071-2.907 2.669-12.377 5.119-9.469 2.449-12.216.889-25.355 3.53-13.139 2.641-21.154 2.127-21.154 2.127 11.581-8.317 18.6-23.743 16.078-30.91-2.523-7.168-15.4-5.864-20.351-1.195-4.951 4.669-16.848 15-22.555 16.274-5.706 1.274-18.03 6.264-18.03 6.264s-.958-7.021-7.996-8.282c-7.038-1.26-12.99 3.687-15.387 7.495-2.397 3.807-11.688 7.073-11.688 7.073-4.514 4.44-6.348 7.678-14.22 10.654-3.946 1.492-9.998 1.482-17.482 4.405-22.416 8.757-17.133 16.272-24.154 20.474-7.021 4.202-18.016 11.627-18.016 11.627-25.844 36.157-65.921 72.807-97.306 98.871 34.767 23.744 64.473 75.774 69.222 124.323.293 2.994.454 5.888.549 8.727 28.03-10.169 53.778-8.292 72.616-13.458 26.73-7.329 63.774-43.222 63.774-43.222 16.786-4.143 18.732-5.486 27.536-10.228 8.805-4.742 47.568-14.961 58.05-15.9 10.482-.938 21.954-3.104 25.68-9.697 5.677-10.047-1.119-21.888-1.119-21.888s3.289.601 9.006-4.703c5.716-5.304 1.03-17.056-9.982-34.601-11.012-17.545-15.582-50.095-24.295-56.112-8.712-6.016-34.515-22.281-34.515-22.281 14.744-2.765 39.084-14.175 46.288-16.817 7.203-2.641 16.494-9.971 19.002-10.962zm-60.08 89.208c2.173 12.415 13.232 25.514 15.683 28.314 2.451 2.799 6.254 10.688 6.254 10.688-2.061-.337-10.289 1.163-10.289 1.163-19.819 5.209-28.335 3.809-37.023 1.92-8.688-1.888-25.247-17.704-18.986-25.835 6.26-8.131 7.713-27.421 7.713-27.421 2.097 1.898 13.314.043 13.314.043 3.093 6.6 23.334 11.128 23.334 11.128z" fill="url(#paint4_radial_77_498)"/><path d="M226.387 366.533c16.126-5.692 51.007-31.45 64.725-33.963 0 0-37.045 35.893-63.774 43.222-14.276 3.915-32.522 3.778-52.72 7.908l8.249-12.917s27.394 1.441 43.52-4.25z" fill="#4B95FA"/><path d="M326.593 210.894c-1.508-1.064-2.672-2.212-3.244-3.433 0 0-.665.109-1.69.247 10.419-3.131 16.194-15.559 16.194-15.559.68 9.416-11.235 18.725-11.26 18.745zm-16.558-3.476s-.203 2.671-.777 6.44c-2.823-10.303.876-24.267.876-24.267-.747 6.297 2.987 18.614 2.994 18.64-1.403-.087-2.553-.324-3.093-.813zm37.601 15.009c-.393-1.279-.729-2.562-.953-3.838 0 0-1.756-.397-4.284-1.111.065-.001 16.954-.243 28.927-10.169 0 0-7.041 10.029-23.69 15.118z" fill="#67E2E8"/><path d="M365.617 257.682c-1.898.402-3.339.583-4.408.589a85.328 85.328 0 014.408-.589z" fill="#E28C61" opacity=".52"/><path d="M364.471 249.908s32.368 10.797 36.788 24.949c-7.611-9.982-18.915-16.35-31.429-17.4l-1.33-.112c-.456-.929-2.239-4.52-4.029-7.437zm-13.856-95.104s-50.577-19.396-56.4-21.157l47.258 23.514 9.142-2.357zm-4.566-51.666c-2.683 3.853-6.066 7.493-9.991 10.312 0 0 3.599.207 9.825-.415l-.001.014-19.436 2.462c11.73-2.821 17.964-10.18 19.603-12.373zm-57.579 2.583c2.919-1.415 1.448-5.107 1.081-5.918 1.338 2.065 1.649 4.08 1.649 4.08s2.618-1.058 5.99-2.323c-2.641.979-8.72 4.161-8.72 4.161z" fill="#67E2E8"/><path d="M401.259 274.857s-16.544-21.143-44.214-15.77c0 0 11.76-3.172 16.093-3.084 2.315.047 9.348 3.33 14.882 6.677 4.824 2.916 8.375 5.958 8.375 5.958l4.864 6.219z" fill="#67E2E8"/><path d="M165.302 274.449s44.169 49.337 28.853 97.879l-19.295-.174-9.558-97.705z" fill="#4B95FA"/><path d="M118.147 228.303c-14.966-6.789-28.04-6.052-37.817.663l-.014-.025-21.55 15.43c4.17.873 8.51 2.273 13.012 4.315 40.166 18.221 77.055 77.247 82.395 131.837 1.375 14.059.501 26.428-2.209 36.768l21.879-15.662-.006-.01c12.876-9.451 19.721-29.627 17.051-56.926-4.714-48.194-37.282-100.304-72.741-116.39z" fill="#fff"/><path d="M-111.537 352.422l-.003-.006.088-.063c.086-.065.176-.124.263-.189L28.928 249.41l.015.028c11.073-7.606 25.884-8.441 42.835-.752 40.166 18.221 77.055 77.246 82.395 131.837 3.024 30.921-4.728 53.775-19.313 64.48l.006.011L-3.873 546.759c-.113.086-.23.163-.343.246l-1.23.881-.015-.027c-11.041 7.42-25.74 8.172-42.542.549-40.165-18.22-77.054-77.245-82.394-131.836-2.994-30.602 4.566-53.308 18.86-64.15z" fill="url(#paint5_linear_77_498)"/><path d="M779.911 447.167a53.828 53.828 0 01-2.614-4.542s-46.363-82.239-48.914-94.395c-2.552-12.157-12.714-17.812-16.66-18.577 0 0-6.655-5.793-15.062-5.992 0 0-7.977-11.368-36.563-9.14-28.585 2.227-27.964.609-27.964.609s-40.621-52.789-50.568-55.333c-9.948-2.544-12.888.466-24.717-.295-11.83-.761-26.318-2.856-36.565 1.14-10.246 3.996-13.449 3.886-13.449 3.886s-16.645 1.629-12.098 13.79c4.547 12.16 18.259 13.9 20.902 13.339 2.643-.562 12.609-2.72 14.968-1.955 2.36.765 13.713 10.435 29.358 8.944 0 0 4.653 15.173 13.692 24.369 0 0-8.582 3.859-7.892 18.876.69 15.018 14.823 60.034 17.111 62.089 2.288 2.055 3.322 4.634 16.423 7.943 0 0-1.55 9.16-19.539 12.831 0 0-19.765.564-43.638-4.605 0 0-3.838-4.35-12.229-6.209-8.392-1.859-26.867-6.747-38.989 1.104-12.121 7.852-12.522 15.446-3.379 22.131 9.143 6.684 21.32 6.055 21.32 6.055s8.289 11.735 13.541 15.261c5.253 3.525 41.159 9.725 64.931 24.362 0 0 3.366 2.699 18.872 8.777 15.506 6.077 28.098 19.773 28.098 19.773s26.763 20.844 55.05 28.583c4.539 1.242 8.804 2.674 12.818 4.185 14.938-41.542 49.225-80.707 83.756-97.004z" fill="url(#paint6_radial_77_498)"/><path d="M605.839 397.234l-.127-6.853-5.279-18.67-6.46-18.515-4.333-10.892-7.191-9.221-9.518-9.651c-2.049 1.321-7.733 6.119-7.166 18.459.691 15.018 14.823 60.034 17.111 62.089 2.246 2.017 3.312 4.542 15.745 7.764l.819-.944 4.045-6.197 2.354-7.369z" fill="#67E2E8"/><path d="M573.657 323.015s13.438 12.633 16.989 20.175c3.55 7.543 14.547 38.933 14.764 42.555.217 3.623 5.295 12.791-6.111 26.178l-1.71-.446s8.998-9.795 7.124-19.909c-2.698-14.563-14.077-45.887-16.063-49.494-1.986-3.608-15.95-18.487-15.95-18.487l.957-.572z" fill="#42D3D3"/><path d="M597.375 364.136s-17.141-12.148-20.298-13.682c0 0 16.8 11.929 16.712 14.751-.087 2.822-2.785 4.063-2.785 4.063s6.17-2.922 8.097-.577c1.927 2.345-1.726-4.555-1.726-4.555zm5.634 17.435s-15.512 8.114-17.706 12.292c0 0 13.93-8.039 18.378-7.041l-.672-5.251z" fill="#42D3D3"/><path d="M560.692 300.774s-1.638-6.524-2.135-13.449l.156 11.416 1.026.449.953 1.584z" fill="#67E2E8"/><path d="M673.95 526.121s-35.007-11.235-50.169-25.182c-15.159-13.941-29.237-12.352-41.002-17.155 2.144 1.25 7.069 3.793 17.41 7.846 15.506 6.077 28.098 19.773 28.098 19.773s24.725 19.249 51.762 27.617l-6.099-12.899z" fill="#4B95FA"/><path d="M756.414 412.866c15.601-3.722 27.991-.585 36.107 7.665l.017-.021 17.774 18.789c-4.159.06-8.576.595-13.271 1.715-41.872 9.99-88.203 59.681-103.482 110.989-3.935 13.213-5.401 25.225-4.73 35.635l-18.045-19.072.008-.008c-10.577-11.448-13.378-32.05-5.737-57.707 13.489-45.296 54.392-89.166 91.359-97.985z" fill="#fff"/><path d="M953.352 574.475l.005-.005-.073-.077c-.071-.079-.146-.152-.217-.23L837.96 449.673l-.02.024c-9.193-9.345-23.227-12.899-40.899-8.683-41.872 9.99-88.203 59.681-103.482 110.989-8.655 29.062-5.483 52.398 6.498 65.364l-.009.01 113.975 123.267c.093.103.191.199.284.3l1.014 1.072.019-.022c9.197 9.16 23.139 12.613 40.655 8.434 41.872-9.989 88.203-59.681 103.483-110.989 8.565-28.761 5.55-51.92-6.126-64.964z" fill="url(#paint7_linear_77_498)"/><path d="M974.307 465.336c-55.909-50.411-169.685 10.687-223.612 96.064l-24.037-24.726C794.892 432.99 906.645 397.19 950.27 440.61l24.037 24.726z" fill="url(#paint8_linear_77_498)" opacity=".15"/><path d="M742.064 692.038c-49.13-57.028 14.658-169.258 101.338-221.133l-24.177-24.59c-105.331 65.74-143.76 176.539-101.338 221.133l24.177 24.59z" fill="url(#paint9_linear_77_498)" opacity=".15"/><path d="M67.628 535.08C127.15 488.985 87.04 366.3 12.452 298.196l28.599-19.279c90.096 85.406 105.644 201.637 55.175 236.884L67.628 535.08z" fill="url(#paint10_linear_77_498)"/><path d="M-114.713 266.657c64.845-38.259 164.145 44.28 199.952 138.688l28.488-19.441C67.554 270.707-34.811 213.36-86.224 247.216l-28.489 19.441z" fill="url(#paint11_linear_77_498)" opacity=".15"/><path d="M-143.172 345.263C-127.996 466.999-3.88 578.76 67.628 535.08l28.598-19.279c-72.946 42.481-197.062-69.28-210.8-189.817l-28.598 19.279z" fill="url(#paint12_linear_77_498)" opacity=".3"/><path d="M67.628 535.08C127.15 488.985 87.04 366.3 12.452 298.196l28.599-19.279c90.096 85.406 105.644 201.637 55.175 236.884L67.628 535.08z" fill="url(#paint13_linear_77_498)" opacity=".15"/></g><defs><linearGradient id="paint5_linear_77_498" x1="190.978" y1="260.572" x2="12.827" y2="398.03" gradientUnits="userSpaceOnUse"><stop stop-color="#3874DA"/><stop offset="1" stop-color="#2A023F"/></linearGradient><linearGradient id="paint7_linear_77_498" x1="680.619" y1="430.217" x2="825.699" y2="595.017" gradientUnits="userSpaceOnUse"><stop stop-color="#3874DA"/><stop offset="1" stop-color="#2A023F"/></linearGradient><linearGradient id="paint8_linear_77_498" x1="929.201" y1="419.117" x2="766.781" y2="577.913" gradientUnits="userSpaceOnUse"><stop stop-color="#2A023F"/><stop offset=".104" stop-color="#2C0844"/><stop offset=".245" stop-color="#321954"/><stop offset=".407" stop-color="#3C366D"/><stop offset=".586" stop-color="#4A5D91"/><stop offset=".778" stop-color="#5D91BF"/><stop offset=".977" stop-color="#73CEF6"/><stop offset="1" stop-color="#76D6FD"/></linearGradient><linearGradient id="paint9_linear_77_498" x1="-79.152" y1="1403.56" x2="858.74" y2="486.594" gradientUnits="userSpaceOnUse"><stop stop-color="#2A023F"/><stop offset=".127" stop-color="#2A0645"/><stop offset=".299" stop-color="#2C1356"/><stop offset=".498" stop-color="#2E2873"/><stop offset=".716" stop-color="#32459A"/><stop offset=".947" stop-color="#366ACD"/><stop offset="1" stop-color="#3874DA"/></linearGradient><linearGradient id="paint10_linear_77_498" x1="121.077" y1="498.914" x2="-6.405" y2="310.951" gradientUnits="userSpaceOnUse"><stop stop-color="#2A023F"/><stop offset=".057" stop-color="#2C0844"/><stop offset=".136" stop-color="#341953"/><stop offset=".226" stop-color="#40366B"/><stop offset=".324" stop-color="#525D8D"/><stop offset=".431" stop-color="#6891B9"/><stop offset=".541" stop-color="#83CEED"/><stop offset=".573" stop-color="#8CE2FE"/></linearGradient><linearGradient id="paint11_linear_77_498" x1="-61.379" y1="230.365" x2="66.101" y2="418.325" gradientUnits="userSpaceOnUse"><stop stop-color="#2A023F"/><stop offset=".104" stop-color="#2C0844"/><stop offset=".245" stop-color="#321954"/><stop offset=".407" stop-color="#3C366D"/><stop offset=".586" stop-color="#4A5D91"/><stop offset=".778" stop-color="#5D91BF"/><stop offset=".977" stop-color="#73CEF6"/><stop offset="1" stop-color="#76D6FD"/></linearGradient><linearGradient id="paint12_linear_77_498" x1="43.218" y1="551.72" x2="-111.431" y2="323.701" gradientUnits="userSpaceOnUse"><stop stop-color="#2A023F"/><stop offset=".127" stop-color="#2A0645"/><stop offset=".299" stop-color="#2C1356"/><stop offset=".498" stop-color="#2E2873"/><stop offset=".716" stop-color="#32459A"/><stop offset=".947" stop-color="#366ACD"/><stop offset="1" stop-color="#3874DA"/></linearGradient><linearGradient id="paint13_linear_77_498" x1="121.077" y1="498.914" x2="-6.405" y2="310.951" gradientUnits="userSpaceOnUse"><stop stop-color="#2A023F"/><stop offset=".127" stop-color="#2A0645"/><stop offset=".299" stop-color="#2C1356"/><stop offset=".498" stop-color="#2E2873"/><stop offset=".716" stop-color="#32459A"/><stop offset=".947" stop-color="#366ACD"/><stop offset="1" stop-color="#3874DA"/></linearGradient><radialGradient id="paint0_radial_77_498" cx="0" cy="0" r="1" gradientUnits="userSpaceOnUse" gradientTransform="matrix(378.93772 17.5521 -17.53863 378.64703 181.36 294.089)"><stop stop-color="#8CE2FE"/><stop offset=".054" stop-color="#79CEFC"/><stop offset=".173" stop-color="#53A5F8"/><stop offset=".253" stop-color="#4C87D7"/><stop offset=".378" stop-color="#425FAA"/><stop offset=".505" stop-color="#3A3D85"/><stop offset=".631" stop-color="#342368"/><stop offset=".756" stop-color="#301054"/><stop offset=".879" stop-color="#2D0548"/><stop offset="1" stop-color="#2D0244"/></radialGradient><radialGradient id="paint1_radial_77_498" cx="0" cy="0" r="1" gradientUnits="userSpaceOnUse" gradientTransform="matrix(197.663 0 0 197.511 409.059 278.917)"><stop stop-color="#FC2FFD"/><stop offset=".283" stop-color="#BE21C5"/><stop offset=".778" stop-color="#560B69"/><stop offset="1" stop-color="#2D0244"/></radialGradient><radialGradient id="paint2_radial_77_498" cx="0" cy="0" r="1" gradientUnits="userSpaceOnUse" gradientTransform="matrix(378.93772 17.5521 -17.53863 378.64703 726.74 449.192)"><stop stop-color="#8CE2FE"/><stop offset=".054" stop-color="#79CEFC"/><stop offset=".173" stop-color="#53A5F8"/><stop offset=".253" stop-color="#4C87D7"/><stop offset=".378" stop-color="#425FAA"/><stop offset=".505" stop-color="#3A3D85"/><stop offset=".631" stop-color="#342368"/><stop offset=".756" stop-color="#301054"/><stop offset=".879" stop-color="#2D0548"/><stop offset="1" stop-color="#2D0244"/></radialGradient><radialGradient id="paint3_radial_77_498" cx="0" cy="0" r="1" gradientUnits="userSpaceOnUse" gradientTransform="matrix(761.511 0 0 760.924 418.173 811.788)"><stop stop-color="#FE4DFE"/><stop offset=".222" stop-color="#3874DA"/><stop offset=".256" stop-color="#3C7BDE"/><stop offset=".442" stop-color="#53A5F8"/><stop offset=".496" stop-color="#4C87D7"/><stop offset=".581" stop-color="#425FAA"/><stop offset=".666" stop-color="#3A3D85"/><stop offset=".751" stop-color="#342368"/><stop offset=".835" stop-color="#301054"/><stop offset=".919" stop-color="#2D0548"/><stop offset="1" stop-color="#2D0244"/></radialGradient><radialGradient id="paint4_radial_77_498" cx="0" cy="0" r="1" gradientUnits="userSpaceOnUse" gradientTransform="matrix(244.682 0 0 244.493 350.535 187.172)"><stop stop-color="#9CF5FE"/><stop offset=".251" stop-color="#98F2FD"/><stop offset=".439" stop-color="#8FE8FD"/><stop offset=".607" stop-color="#7FD8FC"/><stop offset=".763" stop-color="#68C2FB"/><stop offset=".91" stop-color="#4BA6FA"/><stop offset=".941" stop-color="#449FFA"/></radialGradient><radialGradient id="paint6_radial_77_498" cx="0" cy="0" r="1" gradientUnits="userSpaceOnUse" gradientTransform="matrix(339.545 0 0 339.283 525.064 279.672)"><stop stop-color="#9CF5FE"/><stop offset=".363" stop-color="#9AF3FD"/><stop offset=".493" stop-color="#93ECFD"/><stop offset=".586" stop-color="#87E0FD"/><stop offset=".661" stop-color="#76D0FC"/><stop offset=".725" stop-color="#60BBFB"/><stop offset=".781" stop-color="#46A1FA"/><stop offset=".786" stop-color="#449FFA"/></radialGradient><filter id="filter0_f_77_498" x="-228.993" y="-115.993" width="820.669" height="820.084" filterUnits="userSpaceOnUse" color-interpolation-filters="sRGB"><feFlood flood-opacity="0" result="BackgroundImageFix"/><feBlend in="SourceGraphic" in2="BackgroundImageFix" result="shape"/><feGaussianBlur stdDeviation="15.5" result="effect1_foregroundBlur_77_498"/></filter><filter id="filter1_f_77_498" x="196.696" y="66.706" width="424.726" height="424.421" filterUnits="userSpaceOnUse" color-interpolation-filters="sRGB"><feFlood flood-opacity="0" result="BackgroundImageFix"/><feBlend in="SourceGraphic" in2="BackgroundImageFix" result="shape"/><feGaussianBlur stdDeviation="7.35" result="effect1_foregroundBlur_77_498"/></filter><filter id="filter2_f_77_498" x="325.724" y="48.492" width="801.869" height="801.284" filterUnits="userSpaceOnUse" color-interpolation-filters="sRGB"><feFlood flood-opacity="0" result="BackgroundImageFix"/><feBlend in="SourceGraphic" in2="BackgroundImageFix" result="shape"/><feGaussianBlur stdDeviation="10.8" result="effect1_foregroundBlur_77_498"/></filter><filter id="filter3_f_77_498" x="238.791" y="55.532" width="358.765" height="762.17" filterUnits="userSpaceOnUse" color-interpolation-filters="sRGB"><feFlood flood-opacity="0" result="BackgroundImageFix"/><feBlend in="SourceGraphic" in2="BackgroundImageFix" result="shape"/><feGaussianBlur stdDeviation="23.6" result="effect1_foregroundBlur_77_498"/></filter><clipPath id="clip0_77_498"><path fill="#fff" d="M0 0h855v518H0z"/></clipPath></defs></svg>