<svg viewBox="0 0 804 797" fill="none" xmlns="http://www.w3.org/2000/svg"><path d="M131.436 245.097v307.078L404.42 705.742V398.661L131.436 245.097z" fill="#142BFD" stroke="#fff" stroke-width="2"/><mask id="a" fill="#fff"><path d="M365.589 463.449l-38.191-21.482v-42.97l38.191 21.485v42.967zm0 44.2l-38.191-21.488v-42.968l38.191 21.488v42.968zm0 44.196l-38.191-21.485v-42.97l38.191 21.485v42.97zm0 44.194l-38.191-21.483v-42.97l38.191 21.485v42.968zm0 44.198l-38.191-21.487v-42.967l38.191 21.485v42.969zm-77.475-43.587v-42.967l38.193 21.488v42.967l-38.193-21.488zm-39.285-22.097v-42.97l38.194 21.488v42.968l-38.194-21.486zm-39.284-22.096v-42.973l38.197 21.488v42.967l-38.197-21.482zm-39.281-22.1V487.39l38.19 21.482v42.97l-38.19-21.485zm0-87.167l38.19 21.485v42.971l-38.19-21.488V443.19zm0-44.196l38.19 21.485v42.967l-38.19-21.482v-42.97zm0-44.194l38.19 21.483v42.97l-38.19-21.485V354.8zm0-44.199l38.19 21.488v42.967l-38.19-21.488v-42.967zm77.478 43.585v42.97l-38.197-21.488v-42.967l38.197 21.485zm39.281 22.097v42.973l-38.194-21.488V354.8l38.194 21.483zm1.091 87.781v-42.97l38.193 21.488v42.967l-38.193-21.485zm0 44.196v-42.967l38.193 21.482v42.97l-38.193-21.485zm0 1.227l38.193 21.485v42.967l-38.193-21.482v-42.97zm-39.285-22.097l38.194 21.482v42.97l-38.194-21.485V487.39zm-1.087-.618v42.973l-38.197-21.488V465.29l38.197 21.482zm0-44.193v42.967l-38.197-21.485v-42.967l38.197 21.485zm0-1.23l-38.197-21.482v-42.97l38.197 21.485v42.967zm39.281 23.329v42.968l-38.194-21.485v-42.968l38.194 21.485zm-38.194-22.711v-42.973l38.194 21.488v42.967l-38.194-21.482zm77.478-43.585v42.967l-38.193-21.482v-42.97l38.193 21.485zm79.113 44.506v-1.227l-38.737-21.791v-43.584l-1.094-.615v43.585l-38.191-21.485v-43.585l-1.091-.615v43.585l-38.193-21.485v-43.582l-1.091-.618v43.585l-38.194-21.485v-43.582l-1.087-.611v43.579l-38.197-21.486V287.89l-1.091-.612v43.579l-38.19-21.482V265.79l-1.094-.612v43.582l-38.734-21.794v1.229l38.734 21.794v42.968l-38.734-21.791v1.226l38.734 21.791v42.97l-38.734-21.791v1.226l38.734 21.791v42.967l-38.734-21.79v1.226l38.734 21.797v42.967l-38.734-21.791v1.226l38.734 21.791v42.97l-38.734-21.791v1.227l38.734 21.791v43.584l1.094.615v-43.585l38.19 21.485v43.582l1.091.618v-43.585l38.197 21.485v43.582l1.087.611v-43.578l38.194 21.485v43.581l1.091.613v-43.579l38.193 21.482v43.584l1.091.612v-43.582l38.191 21.485v43.585l1.094.611v-43.584l38.737 21.794v-1.229l-38.737-21.792v-42.966l38.737 21.79v-1.226l-38.737-21.794v-42.967l38.737 21.791v-1.226l-38.737-21.794V509.49l38.737 21.794v-1.233l-38.737-21.791v-42.967l38.737 21.791v-1.226l-38.737-21.794v-42.967l38.737 21.791z"/></mask><path d="M365.589 463.449l-38.191-21.482v-42.97l38.191 21.485v42.967zm0 44.2l-38.191-21.488v-42.968l38.191 21.488v42.968zm0 44.196l-38.191-21.485v-42.97l38.191 21.485v42.97zm0 44.194l-38.191-21.483v-42.97l38.191 21.485v42.968zm0 44.198l-38.191-21.487v-42.967l38.191 21.485v42.969zm-77.475-43.587v-42.967l38.193 21.488v42.967l-38.193-21.488zm-39.285-22.097v-42.97l38.194 21.488v42.968l-38.194-21.486zm-39.284-22.096v-42.973l38.197 21.488v42.967l-38.197-21.482zm-39.281-22.1V487.39l38.19 21.482v42.97l-38.19-21.485zm0-87.167l38.19 21.485v42.971l-38.19-21.488V443.19zm0-44.196l38.19 21.485v42.967l-38.19-21.482v-42.97zm0-44.194l38.19 21.483v42.97l-38.19-21.485V354.8zm0-44.199l38.19 21.488v42.967l-38.19-21.488v-42.967zm77.478 43.585v42.97l-38.197-21.488v-42.967l38.197 21.485zm39.281 22.097v42.973l-38.194-21.488V354.8l38.194 21.483zm1.091 87.781v-42.97l38.193 21.488v42.967l-38.193-21.485zm0 44.196v-42.967l38.193 21.482v42.97l-38.193-21.485zm0 1.227l38.193 21.485v42.967l-38.193-21.482v-42.97zm-39.285-22.097l38.194 21.482v42.97l-38.194-21.485V487.39zm-1.087-.618v42.973l-38.197-21.488V465.29l38.197 21.482zm0-44.193v42.967l-38.197-21.485v-42.967l38.197 21.485zm0-1.23l-38.197-21.482v-42.97l38.197 21.485v42.967zm39.281 23.329v42.968l-38.194-21.485v-42.968l38.194 21.485zm-38.194-22.711v-42.973l38.194 21.488v42.967l-38.194-21.482zm77.478-43.585v42.967l-38.193-21.482v-42.97l38.193 21.485zm79.113 44.506v-1.227l-38.737-21.791v-43.584l-1.094-.615v43.585l-38.191-21.485v-43.585l-1.091-.615v43.585l-38.193-21.485v-43.582l-1.091-.618v43.585l-38.194-21.485v-43.582l-1.087-.611v43.579l-38.197-21.486V287.89l-1.091-.612v43.579l-38.19-21.482V265.79l-1.094-.612v43.582l-38.734-21.794v1.229l38.734 21.794v42.968l-38.734-21.791v1.226l38.734 21.791v42.97l-38.734-21.791v1.226l38.734 21.791v42.967l-38.734-21.79v1.226l38.734 21.797v42.967l-38.734-21.791v1.226l38.734 21.791v42.97l-38.734-21.791v1.227l38.734 21.791v43.584l1.094.615v-43.585l38.19 21.485v43.582l1.091.618v-43.585l38.197 21.485v43.582l1.087.611v-43.578l38.194 21.485v43.581l1.091.613v-43.579l38.193 21.482v43.584l1.091.612v-43.582l38.191 21.485v43.585l1.094.611v-43.584l38.737 21.794v-1.229l-38.737-21.792v-42.966l38.737 21.79v-1.226l-38.737-21.794v-42.967l38.737 21.791v-1.226l-38.737-21.794V509.49l38.737 21.794v-1.233l-38.737-21.791v-42.967l38.737 21.791v-1.226l-38.737-21.794v-42.967l38.737 21.791z" fill="#fff" stroke="#fff" stroke-width="8" mask="url(#a)"/><path d="M679.501 551.555v.584l-.51.287-271.301 152.55-1.49.838V398.595l.509-.287L678.01 245.446l1.491-.84v306.949z" fill="#142BFD" stroke="#fff" stroke-width="2"/><mask id="b" fill="#fff"><path d="M640.576 353.568l-38.193 21.488v-42.967l38.193-21.488v42.967zm0 44.2l-38.193 21.485v-42.97l38.193-21.483v42.968zm0 44.196l-38.193 21.482v-42.967l38.193-21.485v42.97zm0 44.194l-38.193 21.488v-42.971l38.193-21.485v42.968zm0 44.199l-38.193 21.485v-42.97l38.193-21.482v42.967zm-77.475 43.582v-42.967l38.191-21.488v42.973l-38.191 21.482zm-39.287 22.1v-42.968l38.193-21.488v42.97l-38.193 21.486zm-39.282 22.099v-42.967l38.194-21.488v42.967l-38.194 21.488zm-39.284 22.099v-42.969l38.194-21.485v42.967l-38.194 21.487zm0-87.166l38.194-21.485v42.97l-38.194 21.483v-42.968zm0-44.196l38.194-21.485v42.97l-38.194 21.485v-42.97zm0-44.194l38.194-21.488v42.968l-38.194 21.488v-42.968zm0-44.199l38.194-21.485v42.97l-38.194 21.482v-42.967zm77.478-43.585v42.97l-38.194 21.482v-42.967l38.194-21.485zm39.281-22.097v42.968l-38.193 21.488v-42.973l38.193-21.483zm1.094 86.549v-42.967l38.191-21.485v42.97l-38.191 21.482zm0 44.197v-42.967l38.191-21.485v42.967l-38.191 21.485zm0 1.226l38.191-21.482v42.967l-38.191 21.488v-42.973zm-39.287 22.1l38.193-21.482v42.967l-38.193 21.485v-42.97zm-1.088.615v42.97l-38.194 21.482v-42.967l38.194-21.485zm0-44.194v42.967l-38.194 21.485v-42.97l38.194-21.482zm0-1.229l-38.194 21.485v-42.967l38.194-21.488v42.97zm39.281-20.871v42.968l-38.193 21.485v-42.968l38.193-21.485zm-38.193 20.256v-42.967l38.193-21.488v42.973l-38.193 21.482zm77.478-130.748v42.967l-38.191 21.488v-42.97l38.191-21.485zm79.112-44.506v-1.229l-38.737 21.794v-43.582l-1.091.612v43.585l-38.193 21.482v-43.579l-1.091.612v43.581l-38.191 21.486v-43.579l-1.094.611v43.582l-38.193 21.485v-43.585l-1.088.618v43.582l-38.194 21.485v-43.585l-1.09.615v43.585l-38.194 21.485v-43.585l-1.091.615v43.584l-38.737 21.791v1.227l38.737-21.791v42.967l-38.737 21.794v1.226l38.737-21.791v42.967l-38.737 21.791v1.233l38.737-21.794v42.967l-38.737 21.794v1.226l38.737-21.791v42.967l-38.737 21.794v1.226l38.737-21.79v42.966l-38.737 21.792v1.229l38.737-21.794v43.584l1.091-.611v-43.585l38.194-21.485v43.582l1.09-.612v-43.584l38.194-21.482v43.579l1.088-.613v-43.581l38.193-21.485v43.578l1.094-.611v-43.582l38.191-21.485v43.585l1.091-.618v-43.582l38.193-21.485v43.585l1.091-.615v-43.584l38.737-21.791v-1.227l-38.737 21.791v-42.97l38.737-21.791v-1.226l-38.737 21.791v-42.967l38.737-21.797v-1.226l-38.737 21.79v-42.967l38.737-21.791v-1.226l-38.737 21.791v-42.97l38.737-21.791v-1.226l-38.737 21.791v-42.968l38.737-21.794z"/></mask><path d="M640.576 353.568l-38.193 21.488v-42.967l38.193-21.488v42.967zm0 44.2l-38.193 21.485v-42.97l38.193-21.483v42.968zm0 44.196l-38.193 21.482v-42.967l38.193-21.485v42.97zm0 44.194l-38.193 21.488v-42.971l38.193-21.485v42.968zm0 44.199l-38.193 21.485v-42.97l38.193-21.482v42.967zm-77.475 43.582v-42.967l38.191-21.488v42.973l-38.191 21.482zm-39.287 22.1v-42.968l38.193-21.488v42.97l-38.193 21.486zm-39.282 22.099v-42.967l38.194-21.488v42.967l-38.194 21.488zm-39.284 22.099v-42.969l38.194-21.485v42.967l-38.194 21.487zm0-87.166l38.194-21.485v42.97l-38.194 21.483v-42.968zm0-44.196l38.194-21.485v42.97l-38.194 21.485v-42.97zm0-44.194l38.194-21.488v42.968l-38.194 21.488v-42.968zm0-44.199l38.194-21.485v42.97l-38.194 21.482v-42.967zm77.478-43.585v42.97l-38.194 21.482v-42.967l38.194-21.485zm39.281-22.097v42.968l-38.193 21.488v-42.973l38.193-21.483zm1.094 86.549v-42.967l38.191-21.485v42.97l-38.191 21.482zm0 44.197v-42.967l38.191-21.485v42.967l-38.191 21.485zm0 1.226l38.191-21.482v42.967l-38.191 21.488v-42.973zm-39.287 22.1l38.193-21.482v42.967l-38.193 21.485v-42.97zm-1.088.615v42.97l-38.194 21.482v-42.967l38.194-21.485zm0-44.194v42.967l-38.194 21.485v-42.97l38.194-21.482zm0-1.229l-38.194 21.485v-42.967l38.194-21.488v42.97zm39.281-20.871v42.968l-38.193 21.485v-42.968l38.193-21.485zm-38.193 20.256v-42.967l38.193-21.488v42.973l-38.193 21.482zm77.478-130.748v42.967l-38.191 21.488v-42.97l38.191-21.485zm79.112-44.506v-1.229l-38.737 21.794v-43.582l-1.091.612v43.585l-38.193 21.482v-43.579l-1.091.612v43.581l-38.191 21.486v-43.579l-1.094.611v43.582l-38.193 21.485v-43.585l-1.088.618v43.582l-38.194 21.485v-43.585l-1.09.615v43.585l-38.194 21.485v-43.585l-1.091.615v43.584l-38.737 21.791v1.227l38.737-21.791v42.967l-38.737 21.794v1.226l38.737-21.791v42.967l-38.737 21.791v1.233l38.737-21.794v42.967l-38.737 21.794v1.226l38.737-21.791v42.967l-38.737 21.794v1.226l38.737-21.79v42.966l-38.737 21.792v1.229l38.737-21.794v43.584l1.091-.611v-43.585l38.194-21.485v43.582l1.09-.612v-43.584l38.194-21.482v43.579l1.088-.613v-43.581l38.193-21.485v43.578l1.094-.611v-43.582l38.191-21.485v43.585l1.091-.618v-43.582l38.193-21.485v43.585l1.091-.615v-43.584l38.737-21.791v-1.227l-38.737 21.791v-42.97l38.737-21.791v-1.226l-38.737 21.791v-42.967l38.737-21.797v-1.226l-38.737 21.79v-42.967l38.737-21.791v-1.226l-38.737 21.791v-42.97l38.737-21.791v-1.226l-38.737 21.791v-42.968l38.737-21.794z" fill="#fff" stroke="#fff" stroke-width="8" mask="url(#b)"/><path d="M678.359 243.39L405.411 89.845 132.475 243.387 405.42 396.928 678.359 243.39z" fill="#142BFD" stroke="#fff" stroke-width="2"/><path d="M405.42 395.248L132.95 241.97l-2.514 1.417L405.42 398.076 680.398 243.39l-2.517-1.414L405.42 395.248z" fill="#fff"/><mask id="c" fill="#fff"><path d="M562.549 264.873l-38.194-21.482 38.191-21.485 38.193 21.485-38.19 21.482zm-39.282 22.1l-38.193-21.489 38.193-21.482 38.191 21.485-38.191 21.486zm-39.284 22.096l-38.191-21.485 38.191-21.482 38.191 21.482-38.191 21.485zm-39.281 22.1l-38.194-21.485 38.19-21.485 38.194 21.485-38.19 21.485zm-39.282 22.1l-38.193-21.488 38.19-21.485 38.194 21.488-38.191 21.485zm-77.478-43.588l38.191-21.485 38.193 21.488-38.19 21.485-38.194-21.488zm-39.284-22.097l38.194-21.485 38.193 21.485-38.193 21.485-38.194-21.485zm-39.281-22.1l38.19-21.482 38.191 21.482-38.191 21.486-38.19-21.486zm-39.285-22.096l38.191-21.485 38.19 21.485-38.19 21.482-38.191-21.482zm77.475-43.585l38.191 21.485-38.191 21.485-38.194-21.485 38.194-21.485zm39.281-22.1l38.194 21.488-38.19 21.485-38.194-21.488 38.19-21.485zm39.282-22.097l38.19 21.485-38.19 21.486-38.191-21.486 38.191-21.485zm39.284-22.096l38.191 21.482-38.191 21.485-38.194-21.485 38.194-21.482zm77.472 43.581l-38.191 21.486-38.19-21.486 38.19-21.485 38.191 21.485zm39.288 22.1l-38.194 21.485-38.191-21.485 38.191-21.485 38.194 21.485zm-76.385 44.197l38.191-21.485 38.194 21.488-38.191 21.482-38.194-21.485zm-39.281 22.096l38.19-21.482 38.191 21.482-38.191 21.486-38.19-21.486zm-1.091.618l38.194 21.482-38.194 21.485-38.19-21.485 38.19-21.482zm-39.284-22.1l38.19 21.482-38.19 21.486-38.191-21.486 38.191-21.482zm-1.091-.614l-38.19 21.482-38.194-21.482 38.194-21.485 38.19 21.485zm39.281-22.097l-38.19 21.482-38.194-21.485 38.191-21.485 38.193 21.488zm1.091-.615l-38.19-21.485 38.19-21.485 38.194 21.485-38.194 21.485zm38.194 22.712l-38.191 21.482-38.193-21.482 38.19-21.485 38.194 21.485zm-37.103-22.097l38.19-21.485 38.194 21.485-38.191 21.482-38.193-21.482zm154.953 0l-38.191 21.482-38.193-21.482 38.19-21.485 38.194 21.485zm79.112 44.505l1.088-.614-38.737-21.791 38.737-21.794-1.088-.615-38.737 21.791-38.194-21.482 38.738-21.791-1.094-.615-38.737 21.791-38.191-21.485 38.737-21.791-1.093-.611-38.735 21.791-38.19-21.489 38.734-21.79-1.091-.612-38.737 21.791-38.194-21.488 38.738-21.791-1.091-.612-38.738 21.791-38.193-21.485 38.737-21.791-1.087-.614-38.738 21.79-38.74-21.79-1.091.611 38.737 21.794-38.19 21.485-38.738-21.794-1.09.615 38.737 21.791-38.191 21.485-38.737-21.791-1.094.615 38.741 21.79-38.194 21.486-38.737-21.791-1.088.611 38.734 21.791-38.19 21.485-38.738-21.794-1.09.618 38.737 21.791-38.19 21.485-38.738-21.794-1.094.615 38.738 21.794-38.738 21.791 1.094.611 38.738-21.791 38.193 21.485-38.737 21.794 1.087.612 38.738-21.791 38.193 21.485-38.734 21.791 1.088.615 38.737-21.794 38.194 21.485-38.738 21.791 1.091.617 38.738-21.793 38.193 21.485-38.737 21.791 1.09.614 38.738-21.791 38.19 21.485-38.737 21.791 1.094.615 38.737-21.791 38.738 21.791 1.09-.615-38.74-21.791 38.194-21.485 38.737 21.791 1.094-.611-38.741-21.791 38.191-21.488 38.741 21.796 1.087-.617-38.737-21.791 38.193-21.485 38.735 21.794 1.094-.615-38.738-21.794 38.191-21.482 38.737 21.791 1.094-.612-38.741-21.794 38.194-21.482 38.737 21.791z"/></mask><path d="M562.549 264.873l-38.194-21.482 38.191-21.485 38.193 21.485-38.19 21.482zm-39.282 22.1l-38.193-21.489 38.193-21.482 38.191 21.485-38.191 21.486zm-39.284 22.096l-38.191-21.485 38.191-21.482 38.191 21.482-38.191 21.485zm-39.281 22.1l-38.194-21.485 38.19-21.485 38.194 21.485-38.19 21.485zm-39.282 22.1l-38.193-21.488 38.19-21.485 38.194 21.488-38.191 21.485zm-77.478-43.588l38.191-21.485 38.193 21.488-38.19 21.485-38.194-21.488zm-39.284-22.097l38.194-21.485 38.193 21.485-38.193 21.485-38.194-21.485zm-39.281-22.1l38.19-21.482 38.191 21.482-38.191 21.486-38.19-21.486zm-39.285-22.096l38.191-21.485 38.19 21.485-38.19 21.482-38.191-21.482zm77.475-43.585l38.191 21.485-38.191 21.485-38.194-21.485 38.194-21.485zm39.281-22.1l38.194 21.488-38.19 21.485-38.194-21.488 38.19-21.485zm39.282-22.097l38.19 21.485-38.19 21.486-38.191-21.486 38.191-21.485zm39.284-22.096l38.191 21.482-38.191 21.485-38.194-21.485 38.194-21.482zm77.472 43.581l-38.191 21.486-38.19-21.486 38.19-21.485 38.191 21.485zm39.288 22.1l-38.194 21.485-38.191-21.485 38.191-21.485 38.194 21.485zm-76.385 44.197l38.191-21.485 38.194 21.488-38.191 21.482-38.194-21.485zm-39.281 22.096l38.19-21.482 38.191 21.482-38.191 21.486-38.19-21.486zm-1.091.618l38.194 21.482-38.194 21.485-38.19-21.485 38.19-21.482zm-39.284-22.1l38.19 21.482-38.19 21.486-38.191-21.486 38.191-21.482zm-1.091-.614l-38.19 21.482-38.194-21.482 38.194-21.485 38.19 21.485zm39.281-22.097l-38.19 21.482-38.194-21.485 38.191-21.485 38.193 21.488zm1.091-.615l-38.19-21.485 38.19-21.485 38.194 21.485-38.194 21.485zm38.194 22.712l-38.191 21.482-38.193-21.482 38.19-21.485 38.194 21.485zm-37.103-22.097l38.19-21.485 38.194 21.485-38.191 21.482-38.193-21.482zm154.953 0l-38.191 21.482-38.193-21.482 38.19-21.485 38.194 21.485zm79.112 44.505l1.088-.614-38.737-21.791 38.737-21.794-1.088-.615-38.737 21.791-38.194-21.482 38.738-21.791-1.094-.615-38.737 21.791-38.191-21.485 38.737-21.791-1.093-.611-38.735 21.791-38.19-21.489 38.734-21.79-1.091-.612-38.737 21.791-38.194-21.488 38.738-21.791-1.091-.612-38.738 21.791-38.193-21.485 38.737-21.791-1.087-.614-38.738 21.79-38.74-21.79-1.091.611 38.737 21.794-38.19 21.485-38.738-21.794-1.09.615 38.737 21.791-38.191 21.485-38.737-21.791-1.094.615 38.741 21.79-38.194 21.486-38.737-21.791-1.088.611 38.734 21.791-38.19 21.485-38.738-21.794-1.09.618 38.737 21.791-38.19 21.485-38.738-21.794-1.094.615 38.738 21.794-38.738 21.791 1.094.611 38.738-21.791 38.193 21.485-38.737 21.794 1.087.612 38.738-21.791 38.193 21.485-38.734 21.791 1.088.615 38.737-21.794 38.194 21.485-38.738 21.791 1.091.617 38.738-21.793 38.193 21.485-38.737 21.791 1.09.614 38.738-21.791 38.19 21.485-38.737 21.791 1.094.615 38.737-21.791 38.738 21.791 1.09-.615-38.74-21.791 38.194-21.485 38.737 21.791 1.094-.611-38.741-21.791 38.191-21.488 38.741 21.796 1.087-.617-38.737-21.791 38.193-21.485 38.735 21.794 1.094-.615-38.738-21.794 38.191-21.482 38.737 21.791 1.094-.612-38.741-21.794 38.194-21.482 38.737 21.791z" fill="#fff" stroke="#fff" stroke-width="8" mask="url(#c)"/><path d="M767.202 297.606l-36.805-20.704v41.405l36.805 20.704L804 318.307v-41.405l-36.798 20.704z" fill="#142BFD"/><path d="M730.897 277.757v40.258l35.805 20.141v-40.257l-35.805-20.142z" fill="#142BFD" stroke="#fff"/><path d="M804 318.307l-36.799 20.704v-41.405L804 276.902v41.405z" fill="#fff"/><path d="M802.98 276.902l-35.782-20.127-35.781 20.127 35.785 20.13 35.778-20.13z" fill="#142BFD" stroke="#fff"/><path d="M767.202 297.606l-35.211-19.805-1.594.896 36.805 20.704L804 278.7l-1.594-.899-35.204 19.805z" fill="#fff"/><path d="M626.04 612.059v40.258l35.804 20.141v-40.26l-35.804-20.139z" fill="#142BFD" stroke="#fff"/><path d="M699.145 652.609l-36.801 20.704v-41.408l36.801-20.701v41.405z" fill="#fff"/><path d="M698.126 611.204l-35.785-20.13-35.782 20.13 35.785 20.127 35.782-20.127z" fill="#142BFD" stroke="#fff"/><path d="M662.344 631.904L627.137 612.1l-1.597.899 36.804 20.704 36.802-20.704-1.598-.899-35.204 19.804z" fill="#fff"/><path d="M483.427 253.739l-36.802-20.704v41.405l36.802 20.701 36.804-20.701v-41.405l-36.804 20.704z" fill="#142BFD"/><path d="M447.125 233.891v40.257l35.802 20.142v-40.258l-35.802-20.141z" fill="#142BFD" stroke="#fff"/><path d="M520.231 274.441l-36.805 20.704V253.74l36.805-20.704v41.405z" fill="#fff"/><path d="M519.208 233.038l-35.781-20.13-35.782 20.127 35.782 20.13 35.781-20.127z" fill="#142BFD" stroke="#fff"/><path d="M483.427 253.739l-35.208-19.805-1.594.897 36.802 20.704 36.801-20.704-1.597-.897-35.204 19.805z" fill="#fff"/><path d="M247.717 84.396l-74.591-41.962v83.918l74.591 41.965 74.594-41.965V42.434l-74.594 41.962z" fill="#142BFD"/><path d="M173.626 43.289v82.77l73.591 41.403V84.688L173.626 43.29z" fill="#142BFD" stroke="#fff"/><path d="M322.312 126.352l-74.595 41.965V84.396l74.595-41.962v83.918z" fill="#fff"/><path d="M321.289 42.434L247.717 1.046l-73.571 41.388 73.571 41.389 73.572-41.389z" fill="#142BFD" stroke="#fff"/><path d="M247.717 84.395L174.399 42.34l-1.273 3.734 74.591 41.962 74.591-41.962-3.235-1.82-71.356 40.142zm58.252 179.647l-55.12-31.007 55.12-31.011 55.12 31.011-55.12 31.007zm201.984 63.582l-34.959-19.666 34.959-19.665 34.959 19.665-34.959 19.666z" fill="#fff"/><path d="M36.801 503.673L0 482.972v41.405l36.801 20.701 36.802-20.701v-41.405l-36.801 20.701z" fill="#142BFD"/><path d="M.5 483.827v40.257l35.805 20.139v-40.258L.5 483.827z" fill="#142BFD" stroke="#fff"/><path d="M73.603 524.377l-36.798 20.701v-41.405l36.798-20.701v41.405z" fill="#fff"/><path d="M72.583 482.975l-35.782-20.13L1.02 482.972l35.785 20.127 35.778-20.124z" fill="#142BFD" stroke="#fff"/><path d="M36.801 503.673L1.597 483.868 0 484.767l36.801 20.704 36.802-20.704-1.594-.899L36.8 503.673z" fill="#fff"/><path d="M229.315 413.394l-36.802-20.704v41.405l36.802 20.704 36.804-20.704V392.69l-36.804 20.704z" fill="#142BFD"/><path d="M193.013 393.545v40.258l35.805 20.141v-40.257l-35.805-20.142z" fill="#142BFD" stroke="#fff"/><path d="M329.477 509.726l-47.019-26.451V430.38l47.019 26.451v52.895zm-63.358-75.631l-36.801 20.704v-41.405l36.801-20.704v41.405z" fill="#fff"/><path d="M265.099 392.69l-35.784-20.13-35.782 20.13 35.785 20.13 35.781-20.13z" fill="#142BFD" stroke="#fff"/><path d="M229.315 413.393l-35.205-19.804-1.597.896 36.802 20.704 36.804-20.704-1.597-.896-35.207 19.804z" fill="#fff"/></svg>