<svg width="100%" viewBox="0 0 804 797" fill="none" xmlns="http://www.w3.org/2000/svg">
<path d="M131.436 245.097V552.175L404.42 705.742V398.661L131.436 245.097Z" fill="#142BFD" stroke="white" stroke-width="2"/>
<mask id="path-2-inside-1_77_424" fill="white">
<path d="M365.589 463.449L327.398 441.967V398.997L365.589 420.482V463.449ZM365.589 507.649L327.398 486.161V443.193L365.589 464.681V507.649ZM365.589 551.845L327.398 530.36V487.39L365.589 508.875V551.845ZM365.589 596.039L327.398 574.556V531.586L365.589 553.071V596.039ZM365.589 640.237L327.398 618.75V575.783L365.589 597.268V640.237ZM288.114 596.65V553.683L326.307 575.171V618.138L288.114 596.65ZM248.829 574.553V531.583L287.023 553.071V596.039L248.829 574.553ZM209.545 552.457V509.484L247.742 530.972V573.939L209.545 552.457ZM170.264 530.357V487.39L208.454 508.872V551.842L170.264 530.357ZM170.264 443.19L208.454 464.675V507.646L170.264 486.158V443.19ZM170.264 398.994L208.454 420.479V463.446L170.264 441.964V398.994ZM170.264 354.8L208.454 376.283V419.253L170.264 397.768V354.8ZM170.264 310.601L208.454 332.089V375.056L170.264 353.568V310.601ZM247.742 354.186V397.156L209.545 375.668V332.701L247.742 354.186ZM287.023 376.283V419.256L248.829 397.768V354.8L287.023 376.283ZM288.114 464.064V421.094L326.307 442.582V485.549L288.114 464.064ZM288.114 508.26V465.293L326.307 486.775V529.745L288.114 508.26ZM288.114 509.487L326.307 530.972V573.939L288.114 552.457V509.487ZM248.829 487.39L287.023 508.872V551.842L248.829 530.357V487.39ZM247.742 486.772V529.745L209.545 508.257V465.29L247.742 486.772ZM247.742 442.579V485.546L209.545 464.061V421.094L247.742 442.579ZM247.742 441.349L209.545 419.867V376.897L247.742 398.382V441.349ZM287.023 464.678V507.646L248.829 486.161V443.193L287.023 464.678ZM248.829 441.967V398.994L287.023 420.482V463.449L248.829 441.967ZM326.307 398.382V441.349L288.114 419.867V376.897L326.307 398.382ZM405.42 442.888V441.661L366.683 419.87V376.286L365.589 375.671V419.256L327.398 397.771V354.186L326.307 353.571V397.156L288.114 375.671V332.089L287.023 331.471V375.056L248.829 353.571V309.989L247.742 309.378V352.957L209.545 331.471V287.89L208.454 287.278V330.857L170.264 309.375V265.79L169.17 265.178V308.76L130.436 286.966V288.195L169.17 309.989V352.957L130.436 331.166V332.392L169.17 354.183V397.153L130.436 375.362V376.588L169.17 398.379V441.346L130.436 419.556V420.782L169.17 442.579V485.546L130.436 463.755V464.981L169.17 486.772V529.742L130.436 507.951V509.178L169.17 530.969V574.553L170.264 575.168V531.583L208.454 553.068V596.65L209.545 597.268V553.683L247.742 575.168V618.75L248.829 619.361V575.783L287.023 597.268V640.849L288.114 641.462V597.883L326.307 619.365V662.949L327.398 663.561V619.979L365.589 641.464V685.049L366.683 685.66V642.076L405.42 663.87V662.641L366.683 640.849V597.883L405.42 619.673V618.447L366.683 596.653V553.686L405.42 575.477V574.251L366.683 552.457V509.49L405.42 531.284V530.051L366.683 508.26V465.293L405.42 487.084V485.858L366.683 464.064V421.097L405.42 442.888Z"/>
</mask>
<path d="M365.589 463.449L327.398 441.967V398.997L365.589 420.482V463.449ZM365.589 507.649L327.398 486.161V443.193L365.589 464.681V507.649ZM365.589 551.845L327.398 530.36V487.39L365.589 508.875V551.845ZM365.589 596.039L327.398 574.556V531.586L365.589 553.071V596.039ZM365.589 640.237L327.398 618.75V575.783L365.589 597.268V640.237ZM288.114 596.65V553.683L326.307 575.171V618.138L288.114 596.65ZM248.829 574.553V531.583L287.023 553.071V596.039L248.829 574.553ZM209.545 552.457V509.484L247.742 530.972V573.939L209.545 552.457ZM170.264 530.357V487.39L208.454 508.872V551.842L170.264 530.357ZM170.264 443.19L208.454 464.675V507.646L170.264 486.158V443.19ZM170.264 398.994L208.454 420.479V463.446L170.264 441.964V398.994ZM170.264 354.8L208.454 376.283V419.253L170.264 397.768V354.8ZM170.264 310.601L208.454 332.089V375.056L170.264 353.568V310.601ZM247.742 354.186V397.156L209.545 375.668V332.701L247.742 354.186ZM287.023 376.283V419.256L248.829 397.768V354.8L287.023 376.283ZM288.114 464.064V421.094L326.307 442.582V485.549L288.114 464.064ZM288.114 508.26V465.293L326.307 486.775V529.745L288.114 508.26ZM288.114 509.487L326.307 530.972V573.939L288.114 552.457V509.487ZM248.829 487.39L287.023 508.872V551.842L248.829 530.357V487.39ZM247.742 486.772V529.745L209.545 508.257V465.29L247.742 486.772ZM247.742 442.579V485.546L209.545 464.061V421.094L247.742 442.579ZM247.742 441.349L209.545 419.867V376.897L247.742 398.382V441.349ZM287.023 464.678V507.646L248.829 486.161V443.193L287.023 464.678ZM248.829 441.967V398.994L287.023 420.482V463.449L248.829 441.967ZM326.307 398.382V441.349L288.114 419.867V376.897L326.307 398.382ZM405.42 442.888V441.661L366.683 419.87V376.286L365.589 375.671V419.256L327.398 397.771V354.186L326.307 353.571V397.156L288.114 375.671V332.089L287.023 331.471V375.056L248.829 353.571V309.989L247.742 309.378V352.957L209.545 331.471V287.89L208.454 287.278V330.857L170.264 309.375V265.79L169.17 265.178V308.76L130.436 286.966V288.195L169.17 309.989V352.957L130.436 331.166V332.392L169.17 354.183V397.153L130.436 375.362V376.588L169.17 398.379V441.346L130.436 419.556V420.782L169.17 442.579V485.546L130.436 463.755V464.981L169.17 486.772V529.742L130.436 507.951V509.178L169.17 530.969V574.553L170.264 575.168V531.583L208.454 553.068V596.65L209.545 597.268V553.683L247.742 575.168V618.75L248.829 619.361V575.783L287.023 597.268V640.849L288.114 641.462V597.883L326.307 619.365V662.949L327.398 663.561V619.979L365.589 641.464V685.049L366.683 685.66V642.076L405.42 663.87V662.641L366.683 640.849V597.883L405.42 619.673V618.447L366.683 596.653V553.686L405.42 575.477V574.251L366.683 552.457V509.49L405.42 531.284V530.051L366.683 508.26V465.293L405.42 487.084V485.858L366.683 464.064V421.097L405.42 442.888Z" fill="white" stroke="white" stroke-width="8" mask="url(#path-2-inside-1_77_424)"/>
<path d="M679.501 551.555V552.139L678.991 552.426L407.69 704.976L406.2 705.814V704.105V399.179V398.595L406.709 398.308L678.01 245.446L679.501 244.606V246.317V551.555Z" fill="#142BFD" stroke="white" stroke-width="2"/>
<mask id="path-4-inside-2_77_424" fill="white">
<path d="M640.576 353.568L602.383 375.056V332.089L640.576 310.601V353.568ZM640.576 397.768L602.383 419.253V376.283L640.576 354.8V397.768ZM640.576 441.964L602.383 463.446V420.479L640.576 398.994V441.964ZM640.576 486.158L602.383 507.646V464.675L640.576 443.19V486.158ZM640.576 530.357L602.383 551.842V508.872L640.576 487.39V530.357ZM563.101 573.939V530.972L601.292 509.484V552.457L563.101 573.939ZM523.814 596.039V553.071L562.007 531.583V574.553L523.814 596.039ZM484.532 618.138V575.171L522.726 553.683V596.65L484.532 618.138ZM445.248 640.237V597.268L483.442 575.783V618.75L445.248 640.237ZM445.248 553.071L483.442 531.586V574.556L445.248 596.039V553.071ZM445.248 508.875L483.442 487.39V530.36L445.248 551.845V508.875ZM445.248 464.681L483.442 443.193V486.161L445.248 507.649V464.681ZM445.248 420.482L483.442 398.997V441.967L445.248 463.449V420.482ZM522.726 376.897V419.867L484.532 441.349V398.382L522.726 376.897ZM562.007 354.8V397.768L523.814 419.256V376.283L562.007 354.8ZM563.101 441.349V398.382L601.292 376.897V419.867L563.101 441.349ZM563.101 485.546V442.579L601.292 421.094V464.061L563.101 485.546ZM563.101 486.772L601.292 465.29V508.257L563.101 529.745V486.772ZM523.814 508.872L562.007 487.39V530.357L523.814 551.842V508.872ZM522.726 509.487V552.457L484.532 573.939V530.972L522.726 509.487ZM522.726 465.293V508.26L484.532 529.745V486.775L522.726 465.293ZM522.726 464.064L484.532 485.549V442.582L522.726 421.094V464.064ZM562.007 443.193V486.161L523.814 507.646V464.678L562.007 443.193ZM523.814 463.449V420.482L562.007 398.994V441.967L523.814 463.449ZM601.292 332.701V375.668L563.101 397.156V354.186L601.292 332.701ZM680.404 288.195V286.966L641.667 308.76V265.178L640.576 265.79V309.375L602.383 330.857V287.278L601.292 287.89V331.471L563.101 352.957V309.378L562.007 309.989V353.571L523.814 375.056V331.471L522.726 332.089V375.671L484.532 397.156V353.571L483.442 354.186V397.771L445.248 419.256V375.671L444.157 376.286V419.87L405.42 441.661V442.888L444.157 421.097V464.064L405.42 485.858V487.084L444.157 465.293V508.26L405.42 530.051V531.284L444.157 509.49V552.457L405.42 574.251V575.477L444.157 553.686V596.653L405.42 618.447V619.673L444.157 597.883V640.849L405.42 662.641V663.87L444.157 642.076V685.66L445.248 685.049V641.464L483.442 619.979V663.561L484.532 662.949V619.365L522.726 597.883V641.462L523.814 640.849V597.268L562.007 575.783V619.361L563.101 618.75V575.168L601.292 553.683V597.268L602.383 596.65V553.068L640.576 531.583V575.168L641.667 574.553V530.969L680.404 509.178V507.951L641.667 529.742V486.772L680.404 464.981V463.755L641.667 485.546V442.579L680.404 420.782V419.556L641.667 441.346V398.379L680.404 376.588V375.362L641.667 397.153V354.183L680.404 332.392V331.166L641.667 352.957V309.989L680.404 288.195Z"/>
</mask>
<path d="M640.576 353.568L602.383 375.056V332.089L640.576 310.601V353.568ZM640.576 397.768L602.383 419.253V376.283L640.576 354.8V397.768ZM640.576 441.964L602.383 463.446V420.479L640.576 398.994V441.964ZM640.576 486.158L602.383 507.646V464.675L640.576 443.19V486.158ZM640.576 530.357L602.383 551.842V508.872L640.576 487.39V530.357ZM563.101 573.939V530.972L601.292 509.484V552.457L563.101 573.939ZM523.814 596.039V553.071L562.007 531.583V574.553L523.814 596.039ZM484.532 618.138V575.171L522.726 553.683V596.65L484.532 618.138ZM445.248 640.237V597.268L483.442 575.783V618.75L445.248 640.237ZM445.248 553.071L483.442 531.586V574.556L445.248 596.039V553.071ZM445.248 508.875L483.442 487.39V530.36L445.248 551.845V508.875ZM445.248 464.681L483.442 443.193V486.161L445.248 507.649V464.681ZM445.248 420.482L483.442 398.997V441.967L445.248 463.449V420.482ZM522.726 376.897V419.867L484.532 441.349V398.382L522.726 376.897ZM562.007 354.8V397.768L523.814 419.256V376.283L562.007 354.8ZM563.101 441.349V398.382L601.292 376.897V419.867L563.101 441.349ZM563.101 485.546V442.579L601.292 421.094V464.061L563.101 485.546ZM563.101 486.772L601.292 465.29V508.257L563.101 529.745V486.772ZM523.814 508.872L562.007 487.39V530.357L523.814 551.842V508.872ZM522.726 509.487V552.457L484.532 573.939V530.972L522.726 509.487ZM522.726 465.293V508.26L484.532 529.745V486.775L522.726 465.293ZM522.726 464.064L484.532 485.549V442.582L522.726 421.094V464.064ZM562.007 443.193V486.161L523.814 507.646V464.678L562.007 443.193ZM523.814 463.449V420.482L562.007 398.994V441.967L523.814 463.449ZM601.292 332.701V375.668L563.101 397.156V354.186L601.292 332.701ZM680.404 288.195V286.966L641.667 308.76V265.178L640.576 265.79V309.375L602.383 330.857V287.278L601.292 287.89V331.471L563.101 352.957V309.378L562.007 309.989V353.571L523.814 375.056V331.471L522.726 332.089V375.671L484.532 397.156V353.571L483.442 354.186V397.771L445.248 419.256V375.671L444.157 376.286V419.87L405.42 441.661V442.888L444.157 421.097V464.064L405.42 485.858V487.084L444.157 465.293V508.26L405.42 530.051V531.284L444.157 509.49V552.457L405.42 574.251V575.477L444.157 553.686V596.653L405.42 618.447V619.673L444.157 597.883V640.849L405.42 662.641V663.87L444.157 642.076V685.66L445.248 685.049V641.464L483.442 619.979V663.561L484.532 662.949V619.365L522.726 597.883V641.462L523.814 640.849V597.268L562.007 575.783V619.361L563.101 618.75V575.168L601.292 553.683V597.268L602.383 596.65V553.068L640.576 531.583V575.168L641.667 574.553V530.969L680.404 509.178V507.951L641.667 529.742V486.772L680.404 464.981V463.755L641.667 485.546V442.579L680.404 420.782V419.556L641.667 441.346V398.379L680.404 376.588V375.362L641.667 397.153V354.183L680.404 332.392V331.166L641.667 352.957V309.989L680.404 288.195Z" fill="white" stroke="white" stroke-width="8" mask="url(#path-4-inside-2_77_424)"/>
<path d="M678.359 243.39L405.411 89.845L132.475 243.387L405.42 396.928L678.359 243.39Z" fill="#142BFD" stroke="white" stroke-width="2"/>
<path d="M405.42 395.248L132.95 241.97L130.436 243.387L405.42 398.076L680.398 243.39L677.881 241.976L405.42 395.248Z" fill="white"/>
<mask id="path-7-inside-3_77_424" fill="white">
<path d="M562.549 264.873L524.355 243.391L562.546 221.906L600.739 243.391L562.549 264.873ZM523.267 286.973L485.074 265.484L523.267 244.002L561.458 265.487L523.267 286.973ZM483.983 309.069L445.792 287.584L483.983 266.102L522.174 287.584L483.983 309.069ZM444.702 331.169L406.508 309.684L444.698 288.199L482.892 309.684L444.702 331.169ZM405.42 353.269L367.227 331.781L405.417 310.296L443.611 331.784L405.42 353.269ZM327.942 309.681L366.133 288.196L404.326 309.684L366.136 331.169L327.942 309.681ZM288.658 287.584L326.852 266.099L365.045 287.584L326.852 309.069L288.658 287.584ZM249.377 265.484L287.567 244.002L325.758 265.484L287.567 286.97L249.377 265.484ZM210.092 243.388L248.283 221.903L286.473 243.388L248.283 264.87L210.092 243.388ZM287.567 199.803L325.758 221.288L287.567 242.773L249.373 221.288L287.567 199.803ZM326.848 177.703L365.042 199.191L326.852 220.676L288.658 199.188L326.848 177.703ZM366.13 155.606L404.32 177.091L366.13 198.577L327.939 177.091L366.13 155.606ZM405.414 133.51L443.605 154.992L405.414 176.477L367.22 154.992L405.414 133.51ZM482.886 177.091L444.695 198.577L406.505 177.091L444.695 155.606L482.886 177.091ZM522.174 199.191L483.98 220.676L445.789 199.191L483.98 177.706L522.174 199.191ZM445.789 243.388L483.98 221.903L522.174 243.391L483.983 264.873L445.789 243.388ZM406.508 265.484L444.698 244.002L482.889 265.484L444.698 286.97L406.508 265.484ZM405.417 266.102L443.611 287.584L405.417 309.069L367.227 287.584L405.417 266.102ZM366.133 244.002L404.323 265.484L366.133 286.97L327.942 265.484L366.133 244.002ZM365.042 243.388L326.852 264.87L288.658 243.388L326.852 221.903L365.042 243.388ZM404.323 221.291L366.133 242.773L327.939 221.288L366.13 199.803L404.323 221.291ZM405.414 220.676L367.224 199.191L405.414 177.706L443.608 199.191L405.414 220.676ZM443.608 243.388L405.417 264.87L367.224 243.388L405.414 221.903L443.608 243.388ZM406.505 221.291L444.695 199.806L482.889 221.291L444.698 242.773L406.505 221.291ZM561.458 221.291L523.267 242.773L485.074 221.291L523.264 199.806L561.458 221.291ZM640.57 265.796L641.658 265.182L602.921 243.391L641.658 221.597L640.57 220.982L601.833 242.773L563.639 221.291L602.377 199.5L601.283 198.885L562.546 220.676L524.355 199.191L563.092 177.4L561.999 176.789L523.264 198.58L485.074 177.091L523.808 155.301L522.717 154.689L483.98 176.48L445.786 154.992L484.524 133.201L483.433 132.589L444.695 154.38L406.502 132.895L445.239 111.104L444.152 110.49L405.414 132.28L366.674 110.49L365.583 111.101L404.32 132.895L366.13 154.38L327.392 132.586L326.302 133.201L365.039 154.992L326.848 176.477L288.111 154.686L287.017 155.301L325.758 177.091L287.564 198.577L248.827 176.786L247.739 177.397L286.473 199.188L248.283 220.673L209.545 198.879L208.455 199.497L247.192 221.288L209.002 242.773L170.264 220.979L169.17 221.594L207.908 243.388L169.17 265.179L170.264 265.79L209.002 243.999L247.195 265.484L208.458 287.278L209.545 287.89L248.283 266.099L286.476 287.584L247.742 309.375L248.83 309.99L287.567 288.196L325.761 309.681L287.023 331.472L288.114 332.089L326.852 310.296L365.045 331.781L326.308 353.572L327.398 354.186L366.136 332.395L404.326 353.88L365.589 375.671L366.683 376.286L405.42 354.495L444.158 376.286L445.248 375.671L406.508 353.88L444.702 332.395L483.439 354.186L484.533 353.575L445.792 331.784L483.983 310.296L522.724 332.092L523.811 331.475L485.074 309.684L523.267 288.199L562.002 309.993L563.096 309.378L524.358 287.584L562.549 266.102L601.286 287.893L602.38 287.281L563.639 265.487L601.833 244.005L640.57 265.796Z"/>
</mask>
<path d="M562.549 264.873L524.355 243.391L562.546 221.906L600.739 243.391L562.549 264.873ZM523.267 286.973L485.074 265.484L523.267 244.002L561.458 265.487L523.267 286.973ZM483.983 309.069L445.792 287.584L483.983 266.102L522.174 287.584L483.983 309.069ZM444.702 331.169L406.508 309.684L444.698 288.199L482.892 309.684L444.702 331.169ZM405.42 353.269L367.227 331.781L405.417 310.296L443.611 331.784L405.42 353.269ZM327.942 309.681L366.133 288.196L404.326 309.684L366.136 331.169L327.942 309.681ZM288.658 287.584L326.852 266.099L365.045 287.584L326.852 309.069L288.658 287.584ZM249.377 265.484L287.567 244.002L325.758 265.484L287.567 286.97L249.377 265.484ZM210.092 243.388L248.283 221.903L286.473 243.388L248.283 264.87L210.092 243.388ZM287.567 199.803L325.758 221.288L287.567 242.773L249.373 221.288L287.567 199.803ZM326.848 177.703L365.042 199.191L326.852 220.676L288.658 199.188L326.848 177.703ZM366.13 155.606L404.32 177.091L366.13 198.577L327.939 177.091L366.13 155.606ZM405.414 133.51L443.605 154.992L405.414 176.477L367.22 154.992L405.414 133.51ZM482.886 177.091L444.695 198.577L406.505 177.091L444.695 155.606L482.886 177.091ZM522.174 199.191L483.98 220.676L445.789 199.191L483.98 177.706L522.174 199.191ZM445.789 243.388L483.98 221.903L522.174 243.391L483.983 264.873L445.789 243.388ZM406.508 265.484L444.698 244.002L482.889 265.484L444.698 286.97L406.508 265.484ZM405.417 266.102L443.611 287.584L405.417 309.069L367.227 287.584L405.417 266.102ZM366.133 244.002L404.323 265.484L366.133 286.97L327.942 265.484L366.133 244.002ZM365.042 243.388L326.852 264.87L288.658 243.388L326.852 221.903L365.042 243.388ZM404.323 221.291L366.133 242.773L327.939 221.288L366.13 199.803L404.323 221.291ZM405.414 220.676L367.224 199.191L405.414 177.706L443.608 199.191L405.414 220.676ZM443.608 243.388L405.417 264.87L367.224 243.388L405.414 221.903L443.608 243.388ZM406.505 221.291L444.695 199.806L482.889 221.291L444.698 242.773L406.505 221.291ZM561.458 221.291L523.267 242.773L485.074 221.291L523.264 199.806L561.458 221.291ZM640.57 265.796L641.658 265.182L602.921 243.391L641.658 221.597L640.57 220.982L601.833 242.773L563.639 221.291L602.377 199.5L601.283 198.885L562.546 220.676L524.355 199.191L563.092 177.4L561.999 176.789L523.264 198.58L485.074 177.091L523.808 155.301L522.717 154.689L483.98 176.48L445.786 154.992L484.524 133.201L483.433 132.589L444.695 154.38L406.502 132.895L445.239 111.104L444.152 110.49L405.414 132.28L366.674 110.49L365.583 111.101L404.32 132.895L366.13 154.38L327.392 132.586L326.302 133.201L365.039 154.992L326.848 176.477L288.111 154.686L287.017 155.301L325.758 177.091L287.564 198.577L248.827 176.786L247.739 177.397L286.473 199.188L248.283 220.673L209.545 198.879L208.455 199.497L247.192 221.288L209.002 242.773L170.264 220.979L169.17 221.594L207.908 243.388L169.17 265.179L170.264 265.79L209.002 243.999L247.195 265.484L208.458 287.278L209.545 287.89L248.283 266.099L286.476 287.584L247.742 309.375L248.83 309.99L287.567 288.196L325.761 309.681L287.023 331.472L288.114 332.089L326.852 310.296L365.045 331.781L326.308 353.572L327.398 354.186L366.136 332.395L404.326 353.88L365.589 375.671L366.683 376.286L405.42 354.495L444.158 376.286L445.248 375.671L406.508 353.88L444.702 332.395L483.439 354.186L484.533 353.575L445.792 331.784L483.983 310.296L522.724 332.092L523.811 331.475L485.074 309.684L523.267 288.199L562.002 309.993L563.096 309.378L524.358 287.584L562.549 266.102L601.286 287.893L602.38 287.281L563.639 265.487L601.833 244.005L640.57 265.796Z" fill="white" stroke="white" stroke-width="8" mask="url(#path-7-inside-3_77_424)"/>
<path d="M767.202 297.606L730.397 276.902V318.307L767.202 339.011L804 318.307V276.902L767.202 297.606Z" fill="#142BFD"/>
<path d="M730.897 277.757V318.015L766.702 338.156V297.899L730.897 277.757Z" fill="#142BFD" stroke="white"/>
<path d="M804 318.307L767.201 339.011V297.606L804 276.902V318.307Z" fill="white"/>
<path d="M802.98 276.902L767.198 256.775L731.417 276.902L767.202 297.032L802.98 276.902Z" fill="#142BFD" stroke="white"/>
<path d="M767.202 297.606L731.991 277.801L730.397 278.697L767.202 299.401L804 278.7L802.406 277.801L767.202 297.606Z" fill="white"/>
<path d="M626.04 612.059V652.317L661.844 672.458V632.198L626.04 612.059Z" fill="#142BFD" stroke="white"/>
<path d="M699.145 652.609L662.344 673.313V631.905L699.145 611.204V652.609Z" fill="white"/>
<path d="M698.126 611.204L662.341 591.074L626.559 611.204L662.344 631.331L698.126 611.204Z" fill="#142BFD" stroke="white"/>
<path d="M662.344 631.904L627.137 612.1L625.54 612.999L662.344 633.703L699.146 612.999L697.548 612.1L662.344 631.904Z" fill="white"/>
<path d="M483.427 253.739L446.625 233.035V274.44L483.427 295.141L520.231 274.44V233.035L483.427 253.739Z" fill="#142BFD"/>
<path d="M447.125 233.891V274.148L482.927 294.29V254.032L447.125 233.891Z" fill="#142BFD" stroke="white"/>
<path d="M520.231 274.441L483.426 295.145V253.74L520.231 233.036V274.441Z" fill="white"/>
<path d="M519.208 233.038L483.427 212.908L447.645 233.035L483.427 253.165L519.208 233.038Z" fill="#142BFD" stroke="white"/>
<path d="M483.427 253.739L448.219 233.934L446.625 234.831L483.427 255.535L520.228 234.831L518.631 233.934L483.427 253.739Z" fill="white"/>
<path d="M247.717 84.396L173.126 42.434V126.352L247.717 168.317L322.311 126.352V42.434L247.717 84.396Z" fill="#142BFD"/>
<path d="M173.626 43.289V126.059L247.217 167.462V84.6884L173.626 43.289Z" fill="#142BFD" stroke="white"/>
<path d="M322.312 126.352L247.717 168.317V84.396L322.312 42.434V126.352Z" fill="white"/>
<path d="M321.289 42.4344L247.717 1.04606L174.146 42.4344L247.717 83.8227L321.289 42.4344Z" fill="#142BFD" stroke="white"/>
<path d="M247.717 84.3955L174.399 42.3385L173.126 46.0729L247.717 88.0349L322.308 46.0729L319.073 44.2532L247.717 84.3955Z" fill="white"/>
<path d="M305.969 264.042L250.849 233.035L305.969 202.024L361.089 233.035L305.969 264.042Z" fill="white"/>
<path d="M507.953 327.624L472.994 307.958L507.953 288.293L542.912 307.958L507.953 327.624Z" fill="white"/>
<path d="M36.8015 503.673L0 482.972V524.377L36.8015 545.078L73.603 524.377V482.972L36.8015 503.673Z" fill="#142BFD"/>
<path d="M0.5 483.827V524.084L36.3046 544.223V503.965L0.5 483.827Z" fill="#142BFD" stroke="white"/>
<path d="M73.603 524.377L36.8046 545.078V503.673L73.603 482.972V524.377Z" fill="white"/>
<path d="M72.5832 482.975L36.8015 462.845L1.0199 482.972L36.8046 503.099L72.5832 482.975Z" fill="#142BFD" stroke="white"/>
<path d="M36.8015 503.673L1.5972 483.868L0 484.767L36.8015 505.471L73.603 484.767L72.0089 483.868L36.8015 503.673Z" fill="white"/>
<path d="M229.315 413.394L192.513 392.69V434.095L229.315 454.799L266.119 434.095V392.69L229.315 413.394Z" fill="#142BFD"/>
<path d="M193.013 393.545V433.803L228.818 453.944V413.687L193.013 393.545Z" fill="#142BFD" stroke="white"/>
<path d="M329.477 509.726L282.458 483.275V430.38L329.477 456.831V509.726Z" fill="white"/>
<path d="M266.119 434.095L229.318 454.799V413.394L266.119 392.69V434.095Z" fill="white"/>
<path d="M265.099 392.69L229.315 372.56L193.533 392.69L229.318 412.82L265.099 392.69Z" fill="#142BFD" stroke="white"/>
<path d="M229.315 413.393L194.11 393.589L192.513 394.485L229.315 415.189L266.119 394.485L264.522 393.589L229.315 413.393Z" fill="white"/>
</svg>
