<svg width="855" height="518" viewBox="0 0 855 518" fill="none" xmlns="http://www.w3.org/2000/svg">
<g style="mix-blend-mode:lighten" opacity="0.2" filter="url(#filter0_f_77_500)">
<path d="M181.342 673.091C390.843 673.091 560.676 503.388 560.676 294.049C560.676 84.7102 390.843 -84.9927 181.342 -84.9927C-28.1588 -84.9927 -197.993 84.7102 -197.993 294.049C-197.993 503.388 -28.1588 673.091 181.342 673.091Z" fill="url(#paint0_radial_77_500)" style="mix-blend-mode:lighten"/>
</g>
<g style="mix-blend-mode:lighten" opacity="0.2" filter="url(#filter1_f_77_500)">
<path d="M548.828 418.578C626.02 341.445 626.02 216.389 548.828 139.256C471.636 62.1232 346.482 62.1232 269.29 139.256C192.098 216.389 192.098 341.445 269.29 418.578C346.482 495.711 471.636 495.711 548.828 418.578Z" fill="url(#paint1_radial_77_500)" style="mix-blend-mode:lighten"/>
</g>
<g style="mix-blend-mode:lighten" opacity="0.2" filter="url(#filter2_f_77_500)">
<path d="M726.658 828.176C936.159 828.176 1105.99 658.473 1105.99 449.134C1105.99 239.795 936.159 70.0923 726.658 70.0923C517.158 70.0923 347.324 239.795 347.324 449.134C347.324 658.473 517.158 828.176 726.658 828.176Z" fill="url(#paint2_radial_77_500)" style="mix-blend-mode:lighten"/>
</g>
<g style="mix-blend-mode:lighten" opacity="0.5" filter="url(#filter3_f_77_500)">
<path d="M550.355 102.732H285.991V692.324L286.149 692.325C285.275 712.476 298.049 732.787 324.707 748.166C376.329 777.947 460.022 777.948 511.641 748.168C537.452 733.278 550.357 713.762 550.355 694.246V102.732Z" fill="url(#paint3_radial_77_500)" style="mix-blend-mode:lighten"/>
</g>
<path d="M418.174 659.204C384.05 659.204 349.926 651.711 323.945 636.724C298.489 622.038 284.468 602.419 284.468 581.484C284.468 560.55 298.489 540.93 323.943 526.245C375.9 496.269 460.439 496.277 512.401 526.248C537.857 540.935 551.878 560.553 551.878 581.489C551.878 602.423 537.857 622.038 512.403 636.724C486.425 651.711 452.301 659.204 418.174 659.204ZM418.17 506.764C384.595 506.764 351.025 514.135 325.466 528.879C300.991 542.999 287.512 561.682 287.512 581.484C287.515 601.287 300.993 619.97 325.468 634.089C376.588 663.58 459.765 663.575 510.88 634.089C535.355 619.97 548.834 601.289 548.834 581.489C548.834 561.684 535.355 543.004 510.878 528.882C485.319 514.138 451.742 506.764 418.17 506.764Z" fill="#53A5F8"/>
<path opacity="0.5" d="M418.174 582.948C384.05 582.948 349.926 575.455 323.945 560.467C298.489 545.782 284.468 526.162 284.468 505.228C284.468 484.294 298.489 464.674 323.943 449.989C375.9 420.015 460.439 420.013 512.401 449.991C537.857 464.679 551.878 484.296 551.878 505.233C551.878 526.167 537.857 545.782 512.403 560.467C486.425 575.455 452.301 582.948 418.174 582.948ZM418.167 430.506C384.595 430.506 351.022 437.879 325.466 452.623C300.991 466.743 287.512 485.426 287.512 505.228C287.515 525.031 300.993 543.714 325.468 557.833C376.588 587.321 459.765 587.321 510.88 557.833C535.355 543.714 548.834 525.033 548.834 505.233C548.834 485.428 535.355 466.748 510.878 452.626C485.319 437.879 451.742 430.506 418.167 430.506Z" fill="#53A5F8"/>
<path opacity="0.3" d="M418.179 506.691C384.05 506.691 349.929 499.199 323.945 484.209C298.489 469.523 284.471 449.906 284.468 428.972C284.468 408.037 298.487 388.418 323.943 373.733C375.9 343.759 460.439 343.757 512.401 373.735C537.857 388.423 551.878 408.04 551.878 428.977C551.878 449.911 537.857 469.526 512.403 484.211C486.427 499.197 452.301 506.691 418.179 506.691ZM418.167 354.25C384.595 354.25 351.022 361.623 325.466 376.367C300.991 390.486 287.512 409.169 287.512 428.972C287.515 448.774 300.993 467.455 325.468 481.574C376.586 511.067 459.768 511.065 510.88 481.577C535.355 467.457 548.834 448.777 548.834 428.977C548.834 409.172 535.355 390.491 510.878 376.369C485.319 361.623 451.742 354.25 418.167 354.25Z" fill="#53A5F8"/>
<path opacity="0.1" d="M418.179 430.435C384.05 430.435 349.929 422.942 323.945 407.952C298.489 393.267 284.468 373.647 284.468 352.713C284.468 331.779 298.489 312.161 323.943 297.476C375.9 267.5 460.439 267.5 512.401 297.476C537.857 312.164 551.878 331.781 551.878 352.718C551.878 373.652 537.86 393.269 512.403 407.955C486.427 422.94 452.301 430.435 418.179 430.435ZM418.17 277.993C384.595 277.993 351.022 285.366 325.466 300.11C300.991 314.23 287.515 332.911 287.512 352.713C287.512 372.516 300.993 391.199 325.468 405.318C376.584 434.811 459.765 434.808 510.88 405.32C535.355 391.201 548.834 372.518 548.834 352.718C548.834 332.913 535.355 314.23 510.878 300.11C485.316 285.366 451.742 277.993 418.17 277.993Z" fill="#53A5F8"/>
<path d="M495.85 526.6C499.458 526.6 502.382 523.678 502.382 520.073C502.382 516.468 499.458 513.546 495.85 513.546C492.243 513.546 489.319 516.468 489.319 520.073C489.319 523.678 492.243 526.6 495.85 526.6Z" fill="#6BD2FE"/>
<path d="M434.77 428.972C434.77 432.576 431.846 435.498 428.238 435.498C424.631 435.498 421.706 432.576 421.706 428.972C421.706 425.367 424.631 422.445 428.238 422.445C431.846 422.445 434.77 425.367 434.77 428.972Z" fill="#6E6EF6"/>
<path d="M332.03 374.726C332.03 378.331 329.106 381.253 325.498 381.253C321.891 381.253 318.967 378.331 318.967 374.726C318.967 371.122 321.891 368.2 325.498 368.2C329.106 368.2 332.03 371.122 332.03 374.726Z" fill="#6E6EF6"/>
<path d="M487.535 362.813C487.535 366.418 484.61 369.34 481.003 369.34C477.396 369.34 474.471 366.418 474.471 362.813C474.471 359.209 477.396 356.286 481.003 356.286C484.61 356.286 487.535 359.209 487.535 362.813Z" fill="#6E6EF6"/>
<path d="M542.837 318.707C542.837 322.311 539.913 325.233 536.305 325.233C532.698 325.233 529.774 322.311 529.774 318.707C529.774 315.102 532.698 312.18 536.305 312.18C539.913 312.18 542.837 315.102 542.837 318.707Z" fill="#6E6EF6"/>
<path d="M420.097 277.863C420.097 283.955 415.155 288.893 409.059 288.893C402.963 288.893 398.021 283.955 398.021 277.863C398.021 271.772 402.963 266.834 409.059 266.834C415.155 266.834 420.097 271.772 420.097 277.863Z" fill="#6E6EF6"/>
<path d="M877.097 466.658C874.106 467.104 871.019 467.729 867.841 468.54C854.296 471.998 840.618 478.451 827.733 486.997L843.248 502.957C856.133 494.411 869.811 487.957 883.356 484.5C886.533 483.689 889.621 483.064 892.612 482.618L877.097 466.658Z" fill="#9CF5FE"/>
<path d="M406.763 129.381C409.272 128.39 421.645 121.075 417.989 108.193C414.334 95.3103 399.271 100.604 394.944 102.674C390.617 104.745 392.037 105.343 382.567 107.793C373.098 110.242 370.351 108.682 357.212 111.323C344.073 113.964 336.058 113.45 336.058 113.45C347.639 105.133 354.658 89.7065 352.136 82.5392C349.613 75.3722 336.736 76.6764 331.785 81.3453C326.834 86.0138 314.937 96.3455 309.23 97.6192C303.524 98.893 291.2 103.883 291.2 103.883C291.2 103.883 290.242 96.8615 283.204 95.6012C276.166 94.3409 270.214 99.2881 267.817 103.096C265.42 106.903 256.129 110.169 256.129 110.169C251.615 114.609 249.781 117.847 241.909 120.823C237.963 122.315 231.911 122.305 224.427 125.228C202.011 133.985 207.294 141.5 200.273 145.702C193.252 149.904 182.257 157.329 182.257 157.329C156.413 193.486 116.336 230.136 84.9506 256.2C119.718 279.944 149.424 331.974 154.173 380.523C154.466 383.517 154.627 386.411 154.722 389.25C182.752 379.081 208.5 380.958 227.338 375.792C254.068 368.463 291.112 332.57 291.112 332.57C307.898 328.427 309.844 327.084 318.648 322.342C327.453 317.6 366.216 307.381 376.698 306.442C387.18 305.504 398.652 303.338 402.378 296.745C408.055 286.698 401.259 274.857 401.259 274.857C401.259 274.857 404.548 275.458 410.265 270.154C415.981 264.85 411.295 253.098 400.283 235.553C389.271 218.008 384.701 185.458 375.988 179.441C367.276 173.425 341.473 157.16 341.473 157.16C356.217 154.395 380.557 142.985 387.761 140.343C394.964 137.702 404.255 130.372 406.763 129.381ZM346.683 218.589C348.856 231.004 359.915 244.103 362.366 246.903C364.817 249.702 368.62 257.591 368.62 257.591C366.559 257.254 358.331 258.754 358.331 258.754C338.512 263.963 329.996 262.563 321.308 260.674C312.62 258.786 296.061 242.97 302.322 234.839C308.582 226.708 310.035 207.418 310.035 207.418C312.132 209.316 323.349 207.461 323.349 207.461C326.442 214.061 346.683 218.589 346.683 218.589Z" fill="url(#paint4_radial_77_500)"/>
<path d="M226.387 366.533C242.513 360.841 277.394 335.083 291.112 332.57C291.112 332.57 254.067 368.463 227.338 375.792C213.062 379.707 194.816 379.57 174.618 383.7L182.867 370.783C182.867 370.783 210.261 372.224 226.387 366.533Z" fill="#4B95FA"/>
<path d="M326.593 210.894C325.085 209.83 323.921 208.682 323.349 207.461C323.349 207.461 322.684 207.57 321.659 207.708C332.078 204.577 337.853 192.149 337.853 192.149C338.533 201.565 326.618 210.874 326.593 210.894Z" fill="#67E2E8"/>
<path d="M310.035 207.418C310.035 207.418 309.832 210.089 309.258 213.858C306.435 203.555 310.134 189.591 310.134 189.591C309.387 195.888 313.121 208.205 313.128 208.231C311.725 208.144 310.575 207.907 310.035 207.418Z" fill="#67E2E8"/>
<path d="M347.636 222.427C347.243 221.148 346.907 219.865 346.683 218.589C346.683 218.589 344.927 218.192 342.399 217.478C342.464 217.477 359.353 217.235 371.326 207.309C371.326 207.309 364.285 217.338 347.636 222.427Z" fill="#67E2E8"/>
<g opacity="0.52">
<path d="M365.617 257.682C363.719 258.084 362.278 258.265 361.209 258.271C362.568 258.058 364.191 257.826 365.617 257.682Z" fill="#E28C61"/>
</g>
<path d="M364.471 249.908C364.471 249.908 396.839 260.705 401.259 274.857C393.648 264.875 382.344 258.507 369.83 257.457L368.5 257.345C368.044 256.416 366.261 252.825 364.471 249.908Z" fill="#67E2E8"/>
<path d="M350.615 154.804C350.615 154.804 300.038 135.408 294.215 133.647L341.473 157.161L350.615 154.804Z" fill="#67E2E8"/>
<path d="M346.049 103.138C343.366 106.991 339.983 110.631 336.058 113.45C336.058 113.45 339.657 113.657 345.883 113.035L345.882 113.049L326.446 115.511C338.176 112.69 344.41 105.331 346.049 103.138Z" fill="#67E2E8"/>
<path d="M288.47 105.721C291.389 104.306 289.918 100.614 289.551 99.8032C290.889 101.868 291.2 103.883 291.2 103.883C291.2 103.883 293.818 102.825 297.19 101.56C294.549 102.539 288.47 105.721 288.47 105.721Z" fill="#67E2E8"/>
<path d="M401.259 274.857C401.259 274.857 384.715 253.714 357.045 259.087C357.045 259.087 368.805 255.915 373.138 256.003C375.453 256.05 382.486 259.333 388.02 262.68C392.844 265.596 396.395 268.638 396.395 268.638L401.259 274.857Z" fill="#67E2E8"/>
<path d="M165.302 274.449C165.302 274.449 209.471 323.786 194.155 372.328L174.86 372.154L165.302 274.449Z" fill="#4B95FA"/>
<path d="M118.147 228.303C103.181 221.514 90.1061 222.251 80.3301 228.966L80.3163 228.941L58.7654 244.371C62.9365 245.244 67.2754 246.644 71.7785 248.686C111.944 266.907 148.833 325.933 154.173 380.523C155.548 394.582 154.674 406.951 151.964 417.291L173.843 401.629L173.837 401.619C186.713 392.168 193.558 371.992 190.888 344.693C186.174 296.499 153.606 244.389 118.147 228.303Z" fill="white"/>
<g style="mix-blend-mode:lighten">
<path d="M-111.537 352.422L-111.54 352.416L-111.452 352.353C-111.366 352.288 -111.276 352.229 -111.189 352.164L28.9279 249.41L28.9429 249.438C40.0164 241.832 54.8271 240.997 71.7785 248.686C111.944 266.907 148.833 325.932 154.173 380.523C157.197 411.444 149.445 434.298 134.86 445.003L134.866 445.014L-3.87281 546.759C-3.98579 546.845 -4.10296 546.922 -4.21648 547.005L-5.4465 547.886L-5.46099 547.859C-16.5023 555.279 -31.2011 556.031 -48.0027 548.408C-88.1684 530.188 -125.057 471.163 -130.397 416.572C-133.391 385.97 -125.831 363.264 -111.537 352.422Z" fill="url(#paint5_linear_77_500)"/>
</g>
<path d="M779.911 447.167C778.995 445.737 778.118 444.231 777.297 442.625C777.297 442.625 730.934 360.386 728.383 348.23C725.831 336.073 715.669 330.418 711.723 329.653C711.723 329.653 705.068 323.86 696.661 323.661C696.661 323.661 688.684 312.293 660.098 314.521C631.513 316.748 632.134 315.13 632.134 315.13C632.134 315.13 591.513 262.341 581.566 259.797C571.618 257.253 568.678 260.263 556.849 259.502C545.019 258.741 530.531 256.646 520.284 260.642C510.038 264.638 506.835 264.528 506.835 264.528C506.835 264.528 490.19 266.157 494.737 278.318C499.284 290.478 512.996 292.218 515.639 291.657C518.282 291.095 528.248 288.937 530.607 289.702C532.967 290.467 544.32 300.137 559.965 298.646C559.965 298.646 564.618 313.819 573.657 323.015C573.657 323.015 565.075 326.874 565.765 341.891C566.455 356.909 580.588 401.925 582.876 403.98C585.164 406.035 586.198 408.614 599.299 411.923C599.299 411.923 597.749 421.083 579.76 424.754C579.76 424.754 559.995 425.318 536.122 420.149C536.122 420.149 532.284 415.799 523.893 413.94C515.501 412.081 497.026 407.193 484.904 415.044C472.783 422.896 472.382 430.49 481.525 437.175C490.668 443.859 502.845 443.23 502.845 443.23C502.845 443.23 511.134 454.965 516.386 458.491C521.639 462.016 557.545 468.216 581.317 482.853C581.317 482.853 584.683 485.552 600.189 491.63C615.695 497.707 628.287 511.403 628.287 511.403C628.287 511.403 655.05 532.247 683.337 539.986C687.876 541.228 692.141 542.66 696.155 544.171C711.093 502.629 745.38 463.464 779.911 447.167Z" fill="url(#paint6_radial_77_500)"/>
<path d="M605.839 397.234L605.712 390.381L600.433 371.711L593.973 353.196L589.64 342.304L582.449 333.083L572.931 323.432C570.882 324.753 565.198 329.551 565.765 341.891C566.456 356.909 580.588 401.925 582.876 403.98C585.122 405.997 586.188 408.522 598.621 411.744L599.44 410.8L603.485 404.603L605.839 397.234Z" fill="#67E2E8"/>
<path d="M573.657 323.015C573.657 323.015 587.095 335.648 590.646 343.19C594.196 350.733 605.193 382.123 605.41 385.745C605.627 389.368 610.705 398.536 599.299 411.923L597.589 411.477C597.589 411.477 606.587 401.682 604.713 391.568C602.015 377.005 590.636 345.681 588.65 342.074C586.664 338.466 572.7 323.587 572.7 323.587L573.657 323.015Z" fill="#42D3D3"/>
<path d="M597.375 364.136C597.375 364.136 580.234 351.988 577.077 350.454C577.077 350.454 593.877 362.383 593.789 365.205C593.702 368.027 591.004 369.268 591.004 369.268C591.004 369.268 597.174 366.346 599.101 368.691C601.028 371.036 597.375 364.136 597.375 364.136Z" fill="#42D3D3"/>
<path d="M603.009 381.571C603.009 381.571 587.497 389.685 585.303 393.863C585.303 393.863 599.233 385.824 603.681 386.822L603.009 381.571Z" fill="#42D3D3"/>
<path d="M560.692 300.774C560.692 300.774 559.054 294.25 558.557 287.325L558.713 298.741L559.739 299.19L560.692 300.774Z" fill="#67E2E8"/>
<path d="M673.95 526.121C673.95 526.121 638.943 514.886 623.781 500.939C608.622 486.998 594.544 488.587 582.779 483.784C584.923 485.034 589.848 487.577 600.189 491.63C615.695 497.707 628.287 511.403 628.287 511.403C628.287 511.403 653.012 530.652 680.049 539.02L673.95 526.121Z" fill="#4B95FA"/>
<path d="M756.414 412.866C772.015 409.144 784.405 412.281 792.521 420.531L792.538 420.51L810.312 439.299C806.153 439.359 801.736 439.894 797.041 441.014C755.169 451.004 708.838 500.695 693.559 552.003C689.624 565.216 688.158 577.228 688.829 587.638L670.784 568.566L670.792 568.558C660.215 557.11 657.414 536.508 665.055 510.851C678.544 465.555 719.447 421.685 756.414 412.866Z" fill="white"/>
<g style="mix-blend-mode:lighten">
<path d="M953.352 574.475L953.357 574.47L953.284 574.393C953.213 574.314 953.138 574.241 953.067 574.163L837.96 449.673L837.94 449.697C828.747 440.352 814.713 436.798 797.041 441.014C755.169 451.004 708.838 500.695 693.559 552.003C684.904 581.065 688.076 604.401 700.057 617.367L700.048 617.377L814.023 740.644C814.116 740.747 814.214 740.843 814.307 740.944L815.321 742.016L815.34 741.994C824.537 751.154 838.479 754.607 855.995 750.428C897.867 740.439 944.198 690.747 959.478 639.439C968.043 610.678 965.028 587.519 953.352 574.475Z" fill="url(#paint7_linear_77_500)"/>
</g>
<g style="mix-blend-mode:lighten" opacity="0.15">
<path d="M974.307 465.336C918.398 414.925 804.622 476.023 750.695 561.4L726.658 536.674C794.892 432.99 906.645 397.19 950.27 440.61L974.307 465.336Z" fill="url(#paint8_linear_77_500)"/>
</g>
<g style="mix-blend-mode:lighten" opacity="0.15">
<path d="M742.064 692.038C692.934 635.01 756.722 522.78 843.402 470.905L819.225 446.315C713.894 512.055 675.465 622.854 717.887 667.448L742.064 692.038Z" fill="url(#paint9_linear_77_500)"/>
</g>
<g style="mix-blend-mode:lighten">
<path d="M67.6278 535.08C127.151 488.985 87.0399 366.3 12.4519 298.196L41.0505 278.917C131.147 364.323 146.695 480.554 96.2261 515.801L67.6278 535.08Z" fill="url(#paint10_linear_77_500)"/>
</g>
<g style="mix-blend-mode:lighten" opacity="0.15">
<path d="M-114.713 266.657C-49.8675 228.398 49.4321 310.937 85.2386 405.345L113.727 385.904C67.5537 270.707 -34.8113 213.36 -86.2244 247.216L-114.713 266.657Z" fill="url(#paint11_linear_77_500)"/>
</g>
<g style="mix-blend-mode:lighten" opacity="0.3">
<path d="M-143.172 345.263C-127.996 466.999 -3.88046 578.76 67.6279 535.08L96.2261 515.801C23.28 558.282 -100.836 446.521 -114.574 325.984L-143.172 345.263Z" fill="url(#paint12_linear_77_500)"/>
</g>
<g style="mix-blend-mode:lighten" opacity="0.15">
<path d="M67.6278 535.08C127.151 488.985 87.0399 366.3 12.4519 298.196L41.0505 278.917C131.147 364.323 146.695 480.554 96.2261 515.801L67.6278 535.08Z" fill="url(#paint13_linear_77_500)"/>
</g>
<defs>
<filter id="filter0_f_77_500" x="-228.993" y="-115.993" width="820.669" height="820.084" filterUnits="userSpaceOnUse" color-interpolation-filters="sRGB">
<feFlood flood-opacity="0" result="BackgroundImageFix"/>
<feBlend mode="normal" in="SourceGraphic" in2="BackgroundImageFix" result="shape"/>
<feGaussianBlur stdDeviation="15.5" result="effect1_foregroundBlur_77_500"/>
</filter>
<filter id="filter1_f_77_500" x="196.696" y="66.7063" width="424.726" height="424.421" filterUnits="userSpaceOnUse" color-interpolation-filters="sRGB">
<feFlood flood-opacity="0" result="BackgroundImageFix"/>
<feBlend mode="normal" in="SourceGraphic" in2="BackgroundImageFix" result="shape"/>
<feGaussianBlur stdDeviation="7.35" result="effect1_foregroundBlur_77_500"/>
</filter>
<filter id="filter2_f_77_500" x="325.724" y="48.4923" width="801.869" height="801.284" filterUnits="userSpaceOnUse" color-interpolation-filters="sRGB">
<feFlood flood-opacity="0" result="BackgroundImageFix"/>
<feBlend mode="normal" in="SourceGraphic" in2="BackgroundImageFix" result="shape"/>
<feGaussianBlur stdDeviation="10.8" result="effect1_foregroundBlur_77_500"/>
</filter>
<filter id="filter3_f_77_500" x="238.791" y="55.5324" width="358.765" height="762.17" filterUnits="userSpaceOnUse" color-interpolation-filters="sRGB">
<feFlood flood-opacity="0" result="BackgroundImageFix"/>
<feBlend mode="normal" in="SourceGraphic" in2="BackgroundImageFix" result="shape"/>
<feGaussianBlur stdDeviation="23.6" result="effect1_foregroundBlur_77_500"/>
</filter>
<radialGradient id="paint0_radial_77_500" cx="0" cy="0" r="1" gradientUnits="userSpaceOnUse" gradientTransform="translate(181.345 294.063) rotate(2.65177) scale(379.344 379.053)">
<stop stop-color="#8CE2FE"/>
<stop offset="0.0535298" stop-color="#79CEFC"/>
<stop offset="0.172619" stop-color="#53A5F8"/>
<stop offset="0.25265" stop-color="#4C87D7"/>
<stop offset="0.378231" stop-color="#425FAA"/>
<stop offset="0.50497" stop-color="#3A3D85"/>
<stop offset="0.630891" stop-color="#342368"/>
<stop offset="0.755849" stop-color="#301054"/>
<stop offset="0.879392" stop-color="#2D0548"/>
<stop offset="1" stop-color="#2D0244"/>
</radialGradient>
<radialGradient id="paint1_radial_77_500" cx="0" cy="0" r="1" gradientUnits="userSpaceOnUse" gradientTransform="translate(409.059 278.917) scale(197.663 197.511)">
<stop stop-color="#FC2FFD"/>
<stop offset="0.282524" stop-color="#BE21C5"/>
<stop offset="0.778255" stop-color="#560B69"/>
<stop offset="1" stop-color="#2D0244"/>
</radialGradient>
<radialGradient id="paint2_radial_77_500" cx="0" cy="0" r="1" gradientUnits="userSpaceOnUse" gradientTransform="translate(726.677 449.152) rotate(2.65177) scale(379.344 379.053)">
<stop stop-color="#8CE2FE"/>
<stop offset="0.0535298" stop-color="#79CEFC"/>
<stop offset="0.172619" stop-color="#53A5F8"/>
<stop offset="0.25265" stop-color="#4C87D7"/>
<stop offset="0.378231" stop-color="#425FAA"/>
<stop offset="0.50497" stop-color="#3A3D85"/>
<stop offset="0.630891" stop-color="#342368"/>
<stop offset="0.755849" stop-color="#301054"/>
<stop offset="0.879392" stop-color="#2D0548"/>
<stop offset="1" stop-color="#2D0244"/>
</radialGradient>
<radialGradient id="paint3_radial_77_500" cx="0" cy="0" r="1" gradientUnits="userSpaceOnUse" gradientTransform="translate(418.173 811.788) scale(761.511 760.924)">
<stop stop-color="#FE4DFE"/>
<stop offset="0.222222" stop-color="#3874DA"/>
<stop offset="0.255869" stop-color="#3C7BDE"/>
<stop offset="0.44246" stop-color="#53A5F8"/>
<stop offset="0.49639" stop-color="#4C87D7"/>
<stop offset="0.581014" stop-color="#425FAA"/>
<stop offset="0.666418" stop-color="#3A3D85"/>
<stop offset="0.751272" stop-color="#342368"/>
<stop offset="0.835476" stop-color="#301054"/>
<stop offset="0.918727" stop-color="#2D0548"/>
<stop offset="1" stop-color="#2D0244"/>
</radialGradient>
<radialGradient id="paint4_radial_77_500" cx="0" cy="0" r="1" gradientUnits="userSpaceOnUse" gradientTransform="translate(350.535 187.172) scale(244.682 244.493)">
<stop stop-color="#9CF5FE"/>
<stop offset="0.251107" stop-color="#98F2FD"/>
<stop offset="0.439407" stop-color="#8FE8FD"/>
<stop offset="0.607258" stop-color="#7FD8FC"/>
<stop offset="0.763149" stop-color="#68C2FB"/>
<stop offset="0.909512" stop-color="#4BA6FA"/>
<stop offset="0.941135" stop-color="#449FFA"/>
</radialGradient>
<linearGradient id="paint5_linear_77_500" x1="190.978" y1="260.572" x2="12.8274" y2="398.03" gradientUnits="userSpaceOnUse">
<stop stop-color="#3874DA"/>
<stop offset="1" stop-color="#2A023F"/>
</linearGradient>
<radialGradient id="paint6_radial_77_500" cx="0" cy="0" r="1" gradientUnits="userSpaceOnUse" gradientTransform="translate(525.064 279.672) scale(339.545 339.283)">
<stop stop-color="#9CF5FE"/>
<stop offset="0.362573" stop-color="#9AF3FD"/>
<stop offset="0.493144" stop-color="#93ECFD"/>
<stop offset="0.586235" stop-color="#87E0FD"/>
<stop offset="0.661478" stop-color="#76D0FC"/>
<stop offset="0.725141" stop-color="#60BBFB"/>
<stop offset="0.781305" stop-color="#46A1FA"/>
<stop offset="0.785714" stop-color="#449FFA"/>
</radialGradient>
<linearGradient id="paint7_linear_77_500" x1="680.619" y1="430.217" x2="825.699" y2="595.017" gradientUnits="userSpaceOnUse">
<stop stop-color="#3874DA"/>
<stop offset="1" stop-color="#2A023F"/>
</linearGradient>
<linearGradient id="paint8_linear_77_500" x1="929.201" y1="419.117" x2="766.781" y2="577.913" gradientUnits="userSpaceOnUse">
<stop stop-color="#2A023F"/>
<stop offset="0.103787" stop-color="#2C0844"/>
<stop offset="0.24484" stop-color="#321954"/>
<stop offset="0.407369" stop-color="#3C366D"/>
<stop offset="0.585947" stop-color="#4A5D91"/>
<stop offset="0.777633" stop-color="#5D91BF"/>
<stop offset="0.977398" stop-color="#73CEF6"/>
<stop offset="1" stop-color="#76D6FD"/>
</linearGradient>
<linearGradient id="paint9_linear_77_500" x1="-79.1524" y1="1403.56" x2="858.74" y2="486.594" gradientUnits="userSpaceOnUse">
<stop stop-color="#2A023F"/>
<stop offset="0.126829" stop-color="#2A0645"/>
<stop offset="0.299134" stop-color="#2C1356"/>
<stop offset="0.49757" stop-color="#2E2873"/>
<stop offset="0.715556" stop-color="#32459A"/>
<stop offset="0.946968" stop-color="#366ACD"/>
<stop offset="1" stop-color="#3874DA"/>
</linearGradient>
<linearGradient id="paint10_linear_77_500" x1="121.077" y1="498.914" x2="-6.40473" y2="310.951" gradientUnits="userSpaceOnUse">
<stop stop-color="#2A023F"/>
<stop offset="0.0574567" stop-color="#2C0844"/>
<stop offset="0.13555" stop-color="#341953"/>
<stop offset="0.225547" stop-color="#40366B"/>
<stop offset="0.324417" stop-color="#525D8D"/>
<stop offset="0.430552" stop-color="#6891B9"/>
<stop offset="0.541099" stop-color="#83CEED"/>
<stop offset="0.573413" stop-color="#8CE2FE"/>
</linearGradient>
<linearGradient id="paint11_linear_77_500" x1="-61.3788" y1="230.365" x2="66.1009" y2="418.325" gradientUnits="userSpaceOnUse">
<stop stop-color="#2A023F"/>
<stop offset="0.103787" stop-color="#2C0844"/>
<stop offset="0.24484" stop-color="#321954"/>
<stop offset="0.407369" stop-color="#3C366D"/>
<stop offset="0.585947" stop-color="#4A5D91"/>
<stop offset="0.777633" stop-color="#5D91BF"/>
<stop offset="0.977398" stop-color="#73CEF6"/>
<stop offset="1" stop-color="#76D6FD"/>
</linearGradient>
<linearGradient id="paint12_linear_77_500" x1="43.2178" y1="551.72" x2="-111.431" y2="323.701" gradientUnits="userSpaceOnUse">
<stop stop-color="#2A023F"/>
<stop offset="0.126829" stop-color="#2A0645"/>
<stop offset="0.299134" stop-color="#2C1356"/>
<stop offset="0.49757" stop-color="#2E2873"/>
<stop offset="0.715556" stop-color="#32459A"/>
<stop offset="0.946968" stop-color="#366ACD"/>
<stop offset="1" stop-color="#3874DA"/>
</linearGradient>
<linearGradient id="paint13_linear_77_500" x1="121.077" y1="498.914" x2="-6.40473" y2="310.951" gradientUnits="userSpaceOnUse">
<stop stop-color="#2A023F"/>
<stop offset="0.126829" stop-color="#2A0645"/>
<stop offset="0.299134" stop-color="#2C1356"/>
<stop offset="0.49757" stop-color="#2E2873"/>
<stop offset="0.715556" stop-color="#32459A"/>
<stop offset="0.946968" stop-color="#366ACD"/>
<stop offset="1" stop-color="#3874DA"/>
</linearGradient>
</defs>
</svg>
